<svg width="253" height="189" viewBox="0 0 253 189" fill="none" xmlns="http://www.w3.org/2000/svg">
<mask id="mask0_219_115" style="mask-type:alpha" maskUnits="userSpaceOnUse" x="0" y="0" width="253" height="189">
<rect width="253" height="189" fill="#D9D9D9"/>
</mask>
<g mask="url(#mask0_219_115)">
<line x1="118.731" y1="87.0208" x2="252.731" y2="1.57841" stroke="#40AC6C"/>
<circle cx="65" cy="124" r="64.5" stroke="#40AC6C"/>
<path fill-rule="evenodd" clip-rule="evenodd" d="M36.0856 107.297C38.0231 104.633 40.891 102.836 44.1749 102.836H47.3785C50.6625 102.836 53.5304 104.633 55.4679 107.297C56.4424 108.637 56.1462 110.513 54.8062 111.488C53.4663 112.462 51.59 112.166 50.6155 110.826C49.5491 109.36 48.3428 108.836 47.3785 108.836H44.1749C43.2107 108.836 42.0044 109.36 40.938 110.826C39.8611 112.307 39.166 114.467 39.166 116.848V130.063C39.166 132.444 39.8611 134.604 40.938 136.085C42.0044 137.552 43.2107 138.075 44.1749 138.075H47.3785C48.3428 138.075 49.5491 137.552 50.6155 136.085C51.59 134.745 53.4663 134.449 54.8062 135.424C56.1462 136.398 56.4424 138.274 55.4679 139.614C53.5304 142.278 50.6625 144.075 47.3785 144.075H44.1749C40.891 144.075 38.0231 142.278 36.0856 139.614C34.1586 136.965 33.166 133.523 33.166 130.063V116.848C33.166 113.388 34.1586 109.946 36.0856 107.297ZM61.7141 107.297C63.6517 104.633 66.5196 102.836 69.8036 102.836H73.0072C76.2912 102.836 79.1588 104.633 81.0964 107.297C83.0236 109.946 84.016 113.388 84.016 116.848V130.063C84.016 133.523 83.0236 136.965 81.0964 139.614C79.1588 142.278 76.2912 144.075 73.0072 144.075H69.8036C66.5196 144.075 63.6517 142.278 61.7141 139.614C59.7871 136.965 58.7946 133.523 58.7946 130.063V116.848C58.7946 113.388 59.7871 109.946 61.7141 107.297ZM69.8036 108.836C68.8392 108.836 67.6328 109.36 66.5665 110.826C65.4896 112.307 64.7946 114.467 64.7946 116.848V130.063C64.7946 132.444 65.4896 134.604 66.5665 136.085C67.6328 137.552 68.8392 138.075 69.8036 138.075H73.0072C73.9712 138.075 75.1776 137.552 76.244 136.085C77.3208 134.604 78.016 132.444 78.016 130.063V116.848C78.016 114.467 77.3208 112.307 76.244 110.826C75.1776 109.36 73.9712 108.836 73.0072 108.836H69.8036ZM90.2932 137.08C90.5028 136.871 90.7876 136.753 91.0844 136.753C91.3812 136.753 91.666 136.871 91.8756 137.08C92.0856 137.29 92.2032 137.575 92.2032 137.871C92.2032 137.866 92.2028 137.867 92.2016 137.875C92.194 137.916 92.1556 138.129 91.9636 138.532C91.7556 138.968 91.4552 139.445 91.126 139.893L84.5868 148.4C83.8904 149.306 83.7692 150.529 84.2744 151.554C84.7796 152.58 85.8232 153.228 86.9664 153.228L95.204 153.226C96.8608 153.226 98.2036 151.882 98.2032 150.226C98.2028 148.568 96.8592 147.226 95.2024 147.226L93.0564 147.227L95.9012 143.525L95.9356 143.48C96.4216 142.822 96.9552 142.003 97.3788 141.115C97.782 140.27 98.2032 139.122 98.2032 137.871C98.2032 135.983 97.4532 134.172 96.118 132.838C94.7828 131.503 92.9724 130.753 91.0844 130.753C89.1964 130.753 87.3856 131.503 86.0508 132.838C84.7156 134.172 83.9656 135.983 83.9656 137.871C83.9656 139.528 85.3088 140.871 86.9656 140.871C88.6224 140.871 89.9656 139.528 89.9656 137.871C89.9656 137.575 90.0832 137.29 90.2932 137.08Z" fill="#40AC6C"/>
</g>
</svg>
