<svg width="65" height="65" viewBox="0 0 65 65" fill="none" xmlns="http://www.w3.org/2000/svg">
<path d="M52.6403 12.7172H12.1323C8.45329 12.7172 5.46021 15.7109 5.46021 19.3899V45.3788C5.46021 49.0591 8.45329 52.0528 12.1323 52.0528H52.6403C56.3193 52.0528 59.3124 49.0591 59.3124 45.3788V19.3899C59.3118 15.7109 56.3187 12.7172 52.6403 12.7172ZM57.3686 45.3794C57.3686 47.9878 55.2474 50.1103 52.6397 50.1103H12.1317C9.52461 50.1103 7.4027 47.9884 7.4027 45.3794V19.3906C7.4027 16.7829 9.52396 14.661 12.1317 14.661H52.6397C55.2467 14.661 57.3686 16.7829 57.3686 19.3906V45.3794Z" fill="#FEFEFE"/>
<path d="M28.8776 33.9175H14.7199C14.1836 33.9175 13.7483 34.3527 13.7483 34.889C13.7483 35.426 14.1836 35.8606 14.7199 35.8606H28.8776C29.4139 35.8606 29.8492 35.426 29.8492 34.889C29.8492 34.3527 29.4139 33.9175 28.8776 33.9175Z" fill="#FEFEFE"/>
<path d="M28.8776 28.2144H14.7199C14.1836 28.2144 13.7483 28.649 13.7483 29.1859C13.7483 29.7222 14.1836 30.1575 14.7199 30.1575H28.8776C29.4139 30.1575 29.8492 29.7222 29.8492 29.1859C29.8492 28.6496 29.4139 28.2144 28.8776 28.2144Z" fill="#FEFEFE"/>
<path d="M46.6897 39.0668C46.1534 39.0668 45.7181 39.5014 45.7181 40.0383V44.7595C45.7181 45.2958 46.1534 45.7311 46.6897 45.7311C47.226 45.7311 47.6613 45.2958 47.6613 44.7595V40.0383C47.6613 39.502 47.226 39.0668 46.6897 39.0668Z" fill="#FEFEFE"/>
<path d="M46.6897 29.6322C46.1534 29.6322 45.7181 30.0675 45.7181 30.6038V35.323C45.7181 35.86 46.1534 36.2946 46.6897 36.2946C47.226 36.2946 47.6613 35.86 47.6613 35.323V30.6038C47.6613 30.0675 47.226 29.6322 46.6897 29.6322Z" fill="#FEFEFE"/>
<path d="M46.6897 20.1931C46.1534 20.1931 45.7181 20.6284 45.7181 21.1647V25.8859C45.7181 26.4228 46.1534 26.8574 46.6897 26.8574C47.226 26.8574 47.6613 26.4228 47.6613 25.8859V21.1647C47.6613 20.6284 47.226 20.1931 46.6897 20.1931Z" fill="#FEFEFE"/>
</svg>
