<svg width="65" height="65" viewBox="0 0 65 65" fill="none" xmlns="http://www.w3.org/2000/svg">
<path d="M44.145 7.93518H20.6285C17.535 7.93518 15.0173 10.4515 15.0173 13.5437V51.2271C15.0173 54.3199 17.535 56.8356 20.6285 56.8356H44.145C47.2378 56.8356 49.7542 54.3199 49.7542 51.2271V13.5437C49.7542 10.4509 47.2385 7.93518 44.145 7.93518ZM47.8111 51.2271C47.8111 53.2486 46.1665 54.8925 44.145 54.8925H20.6285C18.6057 54.8925 16.9605 53.2479 16.9605 51.2271V13.5437C16.9605 11.5229 18.6057 9.87832 20.6285 9.87832H44.145C46.1665 9.87832 47.8111 11.5229 47.8111 13.5437V51.2271Z" fill="#FEFEFE"/>
<path d="M39.357 13.3585H25.2848C24.7485 13.3585 24.3132 13.7938 24.3132 14.3301C24.3132 14.867 24.7485 15.3017 25.2848 15.3017H39.357C39.8933 15.3017 40.3286 14.867 40.3286 14.3301C40.3286 13.7938 39.8933 13.3585 39.357 13.3585Z" fill="#FEFEFE"/>
<path d="M32.3924 45.9792C32.3878 45.9792 32.3833 45.9792 32.3788 45.9792C31.5885 45.9812 30.8476 46.2908 30.2905 46.8517C29.7335 47.4126 29.4284 48.1569 29.4317 48.9451C29.4323 49.7327 29.7413 50.4737 30.3002 51.0301C30.8586 51.5859 31.5996 51.8916 32.3885 51.8916C32.3924 51.8916 32.3956 51.8916 32.3995 51.8916C33.1897 51.8883 33.9307 51.5774 34.4871 51.0165C35.0428 50.4556 35.3472 49.7114 35.3433 48.9218C35.3401 48.1335 35.0305 47.3932 34.4702 46.8368C33.9125 46.2837 33.1748 45.9792 32.3924 45.9792ZM33.3996 48.9322C33.4009 49.2023 33.2972 49.4568 33.1068 49.6485C32.9157 49.8409 32.6612 49.9471 32.3917 49.9484C32.1339 49.9452 31.8638 49.8442 31.6721 49.6524C31.481 49.4626 31.3755 49.21 31.3755 48.9393C31.3742 48.6679 31.4784 48.4127 31.6695 48.2203C31.8599 48.0286 32.1145 47.9224 32.3859 47.9217C32.3872 47.9217 32.3891 47.9217 32.3904 47.9217C32.6579 47.9217 32.9105 48.026 33.101 48.2152C33.2933 48.4056 33.3996 48.6595 33.4002 48.9296C33.3996 48.9309 33.3996 48.9315 33.3996 48.9322Z" fill="#FEFEFE"/>
</svg>
