<svg width="65" height="65" viewBox="0 0 65 65" fill="none" xmlns="http://www.w3.org/2000/svg">
<path d="M49.8182 7.47143C49.4361 7.32051 48.993 7.43192 48.7223 7.74477C48.7093 7.75901 47.4061 9.22803 42.1376 12.0164C36.7907 14.8489 21.8357 24.0678 21.1511 24.492C16.345 27.8893 13.7729 33.5801 14.4394 39.3448C14.9259 43.5387 17.0096 47.1594 20.0027 49.6926L15.8016 55.8543C15.4991 56.298 15.6138 56.9017 16.0568 57.2042C16.2245 57.3188 16.415 57.3732 16.6035 57.3732C16.9137 57.3732 17.2188 57.2249 17.4073 56.949L21.563 50.8546C24.1027 52.5244 27.1184 53.496 30.313 53.496C30.9251 53.496 31.543 53.461 32.1654 53.3891C37.8096 52.7356 42.6947 49.0585 44.9636 43.7725C45.0122 43.7214 45.0627 43.6585 45.1022 43.5866C47.9146 39.0203 49.7502 26.647 49.8752 23.1914C49.9847 19.8991 50.4335 8.52267 50.4381 8.40802C50.4536 7.99543 50.2023 7.62364 49.8182 7.47143ZM16.3696 39.122C15.7847 34.064 18.0466 29.0669 22.2217 26.1133C22.3765 26.0181 37.7558 16.5368 43.047 13.7342C43.9421 13.26 44.7233 12.8241 45.4163 12.4206L21.0973 48.0876C18.5498 45.8685 16.7881 42.733 16.3696 39.122ZM43.5036 42.4726C43.468 42.5063 43.4279 42.5484 43.3871 42.5995C43.3307 42.6701 43.2847 42.7485 43.2497 42.8327C41.2878 47.572 36.9546 50.878 31.9407 51.4577C28.5531 51.8502 25.3029 50.9958 22.6492 49.26L48.3699 11.5384C48.2268 15.1915 48.0053 20.9355 47.9327 23.1234C47.7941 26.9171 45.9462 38.322 43.5036 42.4726Z" fill="#FEFEFE"/>
</svg>
