<svg width="65" height="65" viewBox="0 0 65 65" fill="none" xmlns="http://www.w3.org/2000/svg">
<path d="M16.9 13.65H13C12.7414 13.65 12.4934 13.7527 12.3106 13.9356C12.1277 14.1184 12.025 14.3664 12.025 14.625C12.025 14.8836 12.1277 15.1316 12.3106 15.3145C12.4934 15.4973 12.7414 15.6 13 15.6H16.9C17.1586 15.6 17.4066 15.4973 17.5894 15.3145C17.7723 15.1316 17.875 14.8836 17.875 14.625C17.875 14.3664 17.7723 14.1184 17.5894 13.9356C17.4066 13.7527 17.1586 13.65 16.9 13.65Z" fill="#FEFEFE"/>
<path d="M26 13.65H22.1C21.8414 13.65 21.5934 13.7527 21.4106 13.9356C21.2277 14.1184 21.125 14.3664 21.125 14.625C21.125 14.8836 21.2277 15.1316 21.4106 15.3145C21.5934 15.4973 21.8414 15.6 22.1 15.6H26C26.2586 15.6 26.5066 15.4973 26.6894 15.3145C26.8723 15.1316 26.975 14.8836 26.975 14.625C26.975 14.3664 26.8723 14.1184 26.6894 13.9356C26.5066 13.7527 26.2586 13.65 26 13.65Z" fill="#FEFEFE"/>
<path d="M56.186 17.55H54.6V12.389C54.5983 11.5172 54.2512 10.6816 53.6348 10.0652C53.0183 9.44876 52.1828 9.10169 51.311 9.09998H11.089C10.2172 9.10169 9.38166 9.44876 8.76523 10.0652C8.14879 10.6816 7.80172 11.5172 7.8 12.389V38.311C7.80172 39.1827 8.14879 40.0183 8.76523 40.6348C9.38166 41.2512 10.2172 41.5983 11.089 41.6H13.65V49.036C13.6517 49.8216 13.9645 50.5745 14.52 51.1299C15.0755 51.6854 15.8284 51.9983 16.614 52H25.636C26.4216 51.9983 27.1745 51.6854 27.73 51.1299C28.2855 50.5745 28.5983 49.8216 28.6 49.036V41.6H33.15V49.036C33.1517 49.8216 33.4646 50.5745 34.02 51.1299C34.5755 51.6854 35.3284 51.9983 36.114 52H56.186C56.9716 51.9983 57.7245 51.6854 58.28 51.1299C58.8355 50.5745 59.1483 49.8216 59.15 49.036V20.514C59.1483 19.7284 58.8355 18.9755 58.28 18.42C57.7245 17.8645 56.9716 17.5517 56.186 17.55ZM25.636 50.05H16.614C16.3456 50.0483 16.0887 49.9409 15.8989 49.7511C15.7091 49.5613 15.6017 49.3044 15.6 49.036V29.614C15.6017 29.3456 15.7091 29.0886 15.8989 28.8989C16.0887 28.7091 16.3456 28.6017 16.614 28.6H25.636C25.9044 28.6017 26.1613 28.7091 26.3511 28.8989C26.5409 29.0886 26.6483 29.3456 26.65 29.614V40.6185V49.036C26.6483 49.3044 26.5409 49.5613 26.3511 49.7511C26.1613 49.9409 25.9044 50.0483 25.636 50.05ZM28.6 39.65V29.614C28.5983 28.8284 28.2855 28.0755 27.73 27.52C27.1745 26.9645 26.4216 26.6517 25.636 26.65H16.614C15.8284 26.6517 15.0755 26.9645 14.52 27.52C13.9645 28.0755 13.6517 28.8284 13.65 29.614V39.65H11.089C10.7339 39.65 10.3933 39.5089 10.1422 39.2578C9.89108 39.0067 9.75 38.6661 9.75 38.311V12.389C9.75 12.0339 9.89108 11.6933 10.1422 11.4422C10.3933 11.191 10.7339 11.05 11.089 11.05H51.311C51.6661 11.05 52.0067 11.191 52.2578 11.4422C52.5089 11.6933 52.65 12.0339 52.65 12.389V17.55H36.114C35.3284 17.5517 34.5755 17.8645 34.02 18.42C33.4646 18.9755 33.1517 19.7284 33.15 20.514V39.65H28.6ZM57.2 49.036C57.1983 49.3044 57.0909 49.5613 56.9011 49.7511C56.7113 49.9409 56.4544 50.0483 56.186 50.05H36.114C35.8456 50.0483 35.5887 49.9409 35.3989 49.7511C35.2091 49.5613 35.1017 49.3044 35.1 49.036V20.514C35.1017 20.2456 35.2091 19.9886 35.3989 19.7989C35.5887 19.6091 35.8456 19.5017 36.114 19.5H56.186C56.4544 19.5017 56.7113 19.6091 56.9011 19.7989C57.0909 19.9886 57.1983 20.2456 57.2 20.514V49.036Z" fill="#FEFEFE"/>
<path d="M46.154 47.7762C47.0514 47.773 47.7764 47.043 47.7733 46.1455C47.7702 45.248 47.0401 44.5231 46.1426 44.5262C45.2452 44.5293 44.5202 45.2594 44.5233 46.1568C44.5265 47.0543 45.2565 47.7793 46.154 47.7762Z" fill="#FEFEFE"/>
</svg>
