<svg width="65" height="65" viewBox="0 0 65 65" fill="none" xmlns="http://www.w3.org/2000/svg">
<path d="M49.2598 24.0108C47.7199 24.0108 46.1982 24.3227 44.7854 24.9224C44.032 17.3137 37.4879 11.3467 29.5524 11.3467C21.1131 11.3467 14.2474 18.095 14.2474 26.3904C14.2474 27.2806 14.3291 28.1702 14.4912 29.0513C14.0204 28.9742 13.5458 28.9359 13.0699 28.9359C8.18697 28.9359 4.21436 32.8443 4.21436 37.6482C4.21436 42.452 8.18697 46.3598 13.0699 46.3598H49.6184C49.6943 46.3598 49.7682 46.3507 49.8388 46.3339C55.9025 46.035 60.624 41.1734 60.624 35.1856C60.6233 29.0234 55.5258 24.0108 49.2598 24.0108ZM49.5853 44.3972C49.5341 44.3984 49.4835 44.4049 49.4349 44.414H13.0699C9.26004 44.414 6.15949 41.3783 6.15949 37.6475C6.15949 33.9161 9.25939 30.8804 13.0699 30.8804C13.8849 30.8804 14.6973 31.0269 15.4845 31.3148C15.8294 31.4419 16.2184 31.3615 16.4862 31.1086C16.7547 30.8558 16.8565 30.4732 16.7495 30.1198C16.3799 28.8983 16.1925 27.643 16.1925 26.3904C16.1925 19.1674 22.1861 13.2918 29.5524 13.2918C36.9186 13.2918 42.9122 19.1674 42.9129 26.358C42.9116 26.3819 42.9083 26.4448 42.9083 26.4682C42.9083 26.8183 43.0963 27.1412 43.4004 27.3137C43.7052 27.4868 44.0786 27.4822 44.3788 27.3033C45.8578 26.4215 47.5455 25.9553 49.2592 25.9553C54.4527 25.9553 58.6775 30.0959 58.6775 35.1843C58.6782 40.1794 54.6842 44.2253 49.5853 44.3972Z" fill="#FEFEFE"/>
</svg>
