<svg width="65" height="65" viewBox="0 0 65 65" fill="none" xmlns="http://www.w3.org/2000/svg">
<path d="M49.972 32.448C49.8979 32.2712 49.7732 32.1202 49.6137 32.0138C49.4541 31.9074 49.2668 31.8505 49.075 31.85H37.8495L44.3495 5.44705C44.3952 5.2407 44.3726 5.02511 44.2851 4.83273C44.1976 4.64035 44.05 4.48161 43.8644 4.38041C43.6789 4.27921 43.4655 4.24103 43.2564 4.27163C43.0473 4.30222 42.8538 4.39993 42.705 4.55005L15.236 32.136C15.0998 32.2724 15.0071 32.4461 14.9695 32.6351C14.932 32.8241 14.9513 33.02 15.025 33.198C15.0988 33.3761 15.2236 33.5283 15.3838 33.6355C15.544 33.7426 15.7323 33.7999 15.925 33.8H27.1505L20.6505 60.203C20.6048 60.4094 20.6274 60.625 20.7149 60.8174C20.8024 61.0097 20.9501 61.1685 21.1356 61.2697C21.3211 61.3709 21.5345 61.4091 21.7436 61.3785C21.9527 61.3479 22.1462 61.2502 22.295 61.1L49.764 33.514C49.9005 33.377 49.9931 33.2025 50.0302 33.0127C50.0672 32.8229 50.047 32.6263 49.972 32.448ZM23.4 57.2585L29.354 33.059C29.3897 32.9147 29.3919 32.7641 29.3604 32.6187C29.329 32.4734 29.2647 32.3371 29.1725 32.2205C29.0802 32.1038 28.9626 32.0097 28.8284 31.9455C28.6943 31.8813 28.5472 31.8487 28.3985 31.85H18.2715L41.6 8.39155L35.659 32.591C35.6236 32.7343 35.6211 32.8838 35.6519 33.0282C35.6827 33.1726 35.7458 33.3081 35.8366 33.4245C35.9273 33.5409 36.0433 33.6352 36.1758 33.7003C36.3083 33.7653 36.4539 33.7994 36.6015 33.8H46.7285L23.4 57.2585Z" fill="#FEFEFE"/>
<path d="M46.189 44.811C46.0042 44.6388 45.7597 44.545 45.5071 44.5495C45.2545 44.5539 45.0135 44.6562 44.8349 44.8349C44.6562 45.0135 44.5539 45.2545 44.5495 45.5071C44.545 45.7597 44.6388 46.0042 44.811 46.189L52.611 53.989C52.7958 54.1612 53.0403 54.255 53.2929 54.2505C53.5455 54.2461 53.7865 54.1437 53.9651 53.9651C54.1437 53.7865 54.2461 53.5455 54.2505 53.2929C54.255 53.0403 54.1612 52.7958 53.989 52.611L46.189 44.811Z" fill="#FEFEFE"/>
<path d="M18.2 19.825C18.3927 19.8249 18.581 19.7676 18.7412 19.6605C18.9014 19.5533 19.0262 19.4011 19.1 19.223C19.1737 19.045 19.193 18.8491 19.1555 18.6601C19.1179 18.471 19.0252 18.2974 18.889 18.161L11.089 10.361C10.9042 10.1888 10.6597 10.0951 10.4071 10.0995C10.1545 10.104 9.91353 10.2063 9.73489 10.3849C9.55625 10.5636 9.45393 10.8046 9.44947 11.0572C9.44501 11.3098 9.53877 11.5542 9.711 11.739L17.511 19.539C17.6937 19.7219 17.9415 19.8248 18.2 19.825Z" fill="#FEFEFE"/>
<path d="M44.486 19.214C44.6688 19.3966 44.9166 19.4991 45.175 19.4991C45.4334 19.4991 45.6812 19.3966 45.864 19.214L53.664 11.414C53.8362 11.2291 53.93 10.9847 53.9255 10.7321C53.9211 10.4795 53.8187 10.2385 53.6401 10.0599C53.4615 9.88123 53.2205 9.7789 52.9679 9.77444C52.7153 9.76999 52.4708 9.86375 52.286 10.036L44.486 17.836C44.3034 18.0188 44.2009 18.2666 44.2009 18.525C44.2009 18.7833 44.3034 19.0312 44.486 19.214Z" fill="#FEFEFE"/>
<path d="M17.836 45.1359L10.036 52.9359C9.9402 53.0252 9.86337 53.1329 9.81008 53.2524C9.75679 53.372 9.72814 53.5012 9.72583 53.6321C9.72352 53.763 9.7476 53.893 9.79664 54.0144C9.84568 54.1358 9.91866 54.2461 10.0112 54.3387C10.1038 54.4313 10.2141 54.5043 10.3355 54.5533C10.4569 54.6023 10.587 54.6264 10.7179 54.6241C10.8488 54.6218 10.9779 54.5932 11.0975 54.5399C11.2171 54.4866 11.3247 54.4097 11.414 54.3139L19.214 46.5139C19.3862 46.3291 19.48 46.0847 19.4755 45.8321C19.4711 45.5795 19.3687 45.3385 19.1901 45.1598C19.0115 44.9812 18.7705 44.8789 18.5179 44.8744C18.2653 44.87 18.0208 44.9637 17.836 45.1359Z" fill="#FEFEFE"/>
<path d="M12.025 42.25C12.9225 42.25 13.65 41.5225 13.65 40.625C13.65 39.7275 12.9225 39 12.025 39C11.1275 39 10.4 39.7275 10.4 40.625C10.4 41.5225 11.1275 42.25 12.025 42.25Z" fill="#FEFEFE"/>
<path d="M6.175 37.7C7.07247 37.7 7.8 36.9724 7.8 36.075C7.8 35.1775 7.07247 34.45 6.175 34.45C5.27754 34.45 4.55 35.1775 4.55 36.075C4.55 36.9724 5.27754 37.7 6.175 37.7Z" fill="#FEFEFE"/>
<path d="M58.175 29.25C59.0725 29.25 59.8 28.5225 59.8 27.625C59.8 26.7275 59.0725 26 58.175 26C57.2775 26 56.55 26.7275 56.55 27.625C56.55 28.5225 57.2775 29.25 58.175 29.25Z" fill="#FEFEFE"/>
<path d="M20.475 13C21.3725 13 22.1 12.2725 22.1 11.375C22.1 10.4775 21.3725 9.75 20.475 9.75C19.5775 9.75 18.85 10.4775 18.85 11.375C18.85 12.2725 19.5775 13 20.475 13Z" fill="#FEFEFE"/>
</svg>
