<svg width="65" height="65" viewBox="0 0 65 65" fill="none" xmlns="http://www.w3.org/2000/svg">
<path d="M46.2684 7.60116C46.1195 7.26966 45.7997 7.04801 45.437 7.02656C45.0665 6.99926 44.7292 7.18646 44.5426 7.49781L40.6238 14.0219C40.3462 14.4834 40.4964 15.0827 40.9579 15.3596C41.4187 15.6371 42.0187 15.4883 42.2962 15.0261L44.256 11.7631C43.5468 18.2592 40.1883 24.7332 34.7907 29.8533C28.396 35.9191 20.1332 39.2594 11.5246 39.2594C10.9857 39.2594 10.5496 39.6962 10.5496 40.2344C10.5496 40.7726 10.9857 41.2094 11.5246 41.2094C20.635 41.2094 29.3742 37.6786 36.1329 31.2683C41.8113 25.8824 45.372 19.0561 46.1774 12.1694L47.6321 15.4207C47.7939 15.7827 48.1501 15.9979 48.5226 15.9979C48.6558 15.9979 48.791 15.9706 48.9197 15.9127C49.4118 15.693 49.6321 15.1158 49.4118 14.6244L46.2684 7.60116Z" fill="#FEFEFE"/>
<path d="M11.7663 46.4309C11.2274 46.4309 10.7913 46.8677 10.7913 47.4059V57.0012C10.7913 57.5394 11.2274 57.9762 11.7663 57.9762C12.3051 57.9762 12.7413 57.5394 12.7413 57.0012V47.4059C12.7413 46.8677 12.3051 46.4309 11.7663 46.4309Z" fill="#FEFEFE"/>
<path d="M26.4577 42.3638C25.9188 42.3638 25.4827 42.8006 25.4827 43.3388V57.0011C25.4827 57.5393 25.9188 57.9761 26.4577 57.9761C26.9965 57.9761 27.4327 57.5393 27.4327 57.0011V43.3388C27.4327 42.8006 26.9965 42.3638 26.4577 42.3638Z" fill="#FEFEFE"/>
<path d="M40.8161 32.6652C40.2779 32.6652 39.8411 33.102 39.8411 33.6402V57.0005C39.8411 57.5387 40.2779 57.9755 40.8161 57.9755C41.3543 57.9755 41.7911 57.5387 41.7911 57.0005V33.6402C41.7911 33.102 41.3543 32.6652 40.8161 32.6652Z" fill="#FEFEFE"/>
<path d="M53.4762 9.30542C52.938 9.30542 52.5012 9.74157 52.5012 10.2804V57.0005C52.5012 57.5387 52.938 57.9755 53.4762 57.9755C54.0144 57.9755 54.4512 57.5387 54.4512 57.0005V10.2804C54.4512 9.74157 54.0151 9.30542 53.4762 9.30542Z" fill="#FEFEFE"/>
</svg>
