<svg width="65" height="65" viewBox="0 0 65 65" fill="none" xmlns="http://www.w3.org/2000/svg">
<path d="M56.8749 38.35H51.9999V17.875C51.9999 17.6164 51.8972 17.3684 51.7143 17.1856C51.5315 17.0027 51.2835 16.9 51.0249 16.9H43.5499V7.475C43.5499 7.21641 43.4472 6.96842 43.2643 6.78557C43.0815 6.60272 42.8335 6.5 42.5749 6.5H22.4249C22.1663 6.5 21.9183 6.60272 21.7355 6.78557C21.5526 6.96842 21.4499 7.21641 21.4499 7.475V16.9H13.9749C13.7163 16.9 13.4683 17.0027 13.2855 17.1856C13.1026 17.3684 12.9999 17.6164 12.9999 17.875V38.35H8.1249C7.86632 38.35 7.61832 38.4527 7.43547 38.6356C7.25263 38.8184 7.1499 39.0664 7.1499 39.325V51.675C7.1499 51.9336 7.25263 52.1816 7.43547 52.3644C7.61832 52.5473 7.86632 52.65 8.1249 52.65H20.4749C20.7335 52.65 20.9815 52.5473 21.1643 52.3644C21.3472 52.1816 21.4499 51.9336 21.4499 51.675V39.325C21.4499 39.0664 21.3472 38.8184 21.1643 38.6356C20.9815 38.4527 20.7335 38.35 20.4749 38.35H14.9499V18.85H21.4499V27.625C21.4499 27.8836 21.5526 28.1316 21.7355 28.3144C21.9183 28.4973 22.1663 28.6 22.4249 28.6H31.8499V38.35H26.3249C26.0663 38.35 25.8183 38.4527 25.6355 38.6356C25.4526 38.8184 25.3499 39.0664 25.3499 39.325V51.675C25.3499 51.9336 25.4526 52.1816 25.6355 52.3644C25.8183 52.5473 26.0663 52.65 26.3249 52.65H38.6749C38.9335 52.65 39.1815 52.5473 39.3643 52.3644C39.5472 52.1816 39.6499 51.9336 39.6499 51.675V39.325C39.6499 39.0664 39.5472 38.8184 39.3643 38.6356C39.1815 38.4527 38.9335 38.35 38.6749 38.35H33.7999V28.6H42.5749C42.8335 28.6 43.0815 28.4973 43.2643 28.3144C43.4472 28.1316 43.5499 27.8836 43.5499 27.625V18.85H50.0499V38.35H44.5249C44.2663 38.35 44.0183 38.4527 43.8355 38.6356C43.6526 38.8184 43.5499 39.0664 43.5499 39.325V51.675C43.5499 51.9336 43.6526 52.1816 43.8355 52.3644C44.0183 52.5473 44.2663 52.65 44.5249 52.65H56.8749C57.1335 52.65 57.3815 52.5473 57.5643 52.3644C57.7472 52.1816 57.8499 51.9336 57.8499 51.675V39.325C57.8499 39.0664 57.7472 38.8184 57.5643 38.6356C57.3815 38.4527 57.1335 38.35 56.8749 38.35ZM19.4999 50.7H9.0999V40.3H19.4999V50.7ZM37.6999 50.7H27.2999V40.3H37.6999V50.7ZM41.5999 26.65H23.3999V8.45H41.5999V26.65ZM55.8999 50.7H45.4999V40.3H55.8999V50.7Z" fill="#FEFEFE"/>
</svg>
