<svg width="65" height="65" viewBox="0 0 65 65" fill="none" xmlns="http://www.w3.org/2000/svg">
<path d="M61.4169 30.4853C60.9933 28.8336 59.9517 27.4469 58.4847 26.5796C57.0157 25.7117 55.2973 25.4688 53.6456 25.8937C50.5579 26.6884 48.5857 29.6252 48.892 32.705L42.4259 34.3703C42.4939 33.8865 42.5412 33.3961 42.5412 32.8935C42.5412 27.0505 37.7876 22.2969 31.9446 22.2969C31.5158 22.2969 31.0955 22.33 30.6796 22.3798L32.5548 16.7803C32.9162 16.8432 33.2802 16.8769 33.6436 16.8769C34.6177 16.8769 35.5854 16.6514 36.4825 16.2045C38.0085 15.4448 39.1472 14.1351 39.6893 12.5177C40.806 9.18007 39.0001 5.55482 35.6638 4.43687C32.3274 3.32021 28.7009 5.12603 27.5823 8.46435C26.5699 11.4866 27.9618 14.7387 30.7139 16.1566L28.5188 22.7134C28.4994 22.7723 28.4865 22.8319 28.4787 22.8915C24.4946 24.2763 21.5928 27.9696 21.3752 32.3663L15.8185 30.5015C16.3451 27.4514 14.5891 24.3806 11.5675 23.3669C9.94955 22.8242 8.21951 22.944 6.69349 23.7031C5.16619 24.4622 4.02686 25.7706 3.48537 27.3867C2.36547 30.723 4.16871 34.3496 7.50508 35.4714C8.17611 35.6962 8.85815 35.803 9.52983 35.803C11.8843 35.803 14.102 34.4875 15.2064 32.3462L21.4763 34.45C22.2328 39.5565 26.6321 43.4914 31.9459 43.4914C32.3714 43.4914 32.7892 43.459 33.2012 43.4104L30.8448 48.1977C29.5565 47.7896 28.1788 47.7942 26.8775 48.2372C25.2641 48.7858 23.9602 49.931 23.2069 51.4609C22.453 52.9908 22.3397 54.7221 22.8889 56.3362C23.4375 57.951 24.5827 59.2548 26.1139 60.0081C27.0038 60.4466 27.9625 60.6675 28.9263 60.6675C29.6187 60.6675 30.3143 60.5535 30.9899 60.3235C32.604 59.7736 33.9078 58.6291 34.6598 57.1005C35.4144 55.5693 35.5271 53.8373 34.9778 52.2239C34.5342 50.922 33.698 49.828 32.5891 49.0559L35.6418 42.8534C35.6489 42.8385 35.6521 42.823 35.6586 42.8074C38.5467 41.7218 40.8325 39.416 41.8922 36.5155L49.3765 34.5879C49.9063 35.8309 50.8067 36.8731 51.992 37.5732C52.9882 38.1614 54.099 38.4626 55.226 38.4626C55.7597 38.4626 56.2973 38.3952 56.8285 38.2585C58.4814 37.833 59.8682 36.7902 60.7348 35.3224C61.6002 33.8541 61.8431 32.1363 61.4169 30.4853ZM29.4244 9.08227C30.2029 6.76086 32.7225 5.50235 35.0465 6.28026C37.3673 7.05751 38.6225 9.57971 37.8459 11.9018C37.4696 13.0268 36.6774 13.9375 35.6165 14.4661C34.5549 14.9939 33.3521 15.0782 32.227 14.7012C29.9043 13.9226 28.6477 11.4024 29.4244 9.08227ZM32.9155 56.2416C32.3915 57.3052 31.4854 58.1019 30.3622 58.484C29.241 58.8662 28.035 58.7891 26.9721 58.2651C25.9066 57.7411 25.1106 56.8343 24.7284 55.7112C24.3469 54.5887 24.4259 53.3839 24.9506 52.3191C25.4752 51.2542 26.3814 50.4582 27.5032 50.0767C27.9715 49.9174 28.4534 49.8383 28.934 49.8383C29.6057 49.8383 30.2735 49.9925 30.8934 50.2982C30.894 50.2982 30.894 50.2982 30.894 50.2982C31.9589 50.8222 32.7555 51.7284 33.137 52.8502C33.5185 53.9714 33.4402 55.1762 32.9155 56.2416ZM8.123 33.6293C5.80159 32.8495 4.54697 30.326 5.32682 28.0046C5.70379 26.8808 6.49659 25.9707 7.55819 25.4429C8.18259 25.1326 8.85491 24.9759 9.53177 24.9759C10.0072 24.9759 10.4852 25.0529 10.949 25.2084C13.2684 25.9869 14.5231 28.5085 13.7452 30.8299C12.9653 33.1519 10.4457 34.4085 8.123 33.6293ZM31.9453 41.5483C27.1735 41.5483 23.2918 37.6659 23.2918 32.8935C23.2918 28.1218 27.1735 24.2401 31.9453 24.2401C36.717 24.2401 40.5987 28.1218 40.5987 32.8935C40.5987 37.6659 36.717 41.5483 31.9453 41.5483ZM59.0605 34.334C58.4575 35.3548 57.4924 36.0803 56.3427 36.3763C55.1956 36.6716 54.0012 36.5032 52.9797 35.9002C51.9583 35.2972 51.2335 34.3321 50.9382 33.183C50.328 30.8118 51.7607 28.3867 54.1314 27.7766C54.5012 27.6814 54.8756 27.6341 55.248 27.6341C56.0318 27.6341 56.8045 27.8439 57.4975 28.2533C58.5177 28.8563 59.2418 29.8208 59.5359 30.9685C59.5359 30.9685 59.5366 30.9692 59.5366 30.9698C59.8313 32.1182 59.6629 33.3132 59.0605 34.334Z" fill="#FEFEFE"/>
</svg>
