<svg width="59" height="59" viewBox="0 0 59 59" fill="none" xmlns="http://www.w3.org/2000/svg">
<path d="M33.1713 45.3291C33.1713 47.3592 31.5304 49.0001 29.495 49.0001C27.4673 49.0001 25.824 47.3586 25.824 45.3291C25.824 43.299 27.4678 41.6575 29.495 41.6575C31.5304 41.6575 33.1713 43.299 33.1713 45.3291Z" stroke="#FEFEFE" stroke-width="3" stroke-miterlimit="10" stroke-linecap="round" stroke-linejoin="round"/>
<path d="M18.0787 36.2203C20.6632 32.7192 24.8122 30.4469 29.4956 30.4469C33.9973 30.4469 37.9994 32.544 40.5933 35.8029" stroke="#FEFEFE" stroke-width="3" stroke-miterlimit="10" stroke-linecap="round" stroke-linejoin="round"/>
<path d="M11.1247 29.4803C15.4965 24.1943 22.1025 20.8202 29.495 20.8202C36.6865 20.8202 43.1196 23.9997 47.482 29.0294" stroke="#FEFEFE" stroke-width="3" stroke-miterlimit="10" stroke-linecap="round" stroke-linejoin="round"/>
<path d="M5.08026 23.4212C11.0071 16.5948 19.7437 12.2823 29.4956 12.2823C39.067 12.2823 47.6625 16.4384 53.584 23.0396" stroke="#FEFEFE" stroke-width="3" stroke-miterlimit="10" stroke-linecap="round" stroke-linejoin="round"/>
</svg>
