<svg width="60" height="60" viewBox="0 0 60 60" fill="none" xmlns="http://www.w3.org/2000/svg">
<path d="M29.9251 18.2543C23.8198 18.2543 18.8528 23.2213 18.8528 29.3266C18.8528 35.4319 23.8198 40.3989 29.9251 40.3989C36.0304 40.3989 40.9974 35.4319 40.9974 29.3266C40.9974 23.2213 36.0304 18.2543 29.9251 18.2543ZM29.9251 38.6034C24.8097 38.6034 20.6483 34.442 20.6483 29.3266C20.6483 24.2112 24.8097 20.0498 29.9251 20.0498C35.0405 20.0498 39.2019 24.2112 39.2019 29.3266C39.2019 34.442 35.0405 38.6034 29.9251 38.6034Z" fill="#FEFEFE"/>
<path d="M56.9925 24.8385L49.8296 23.7546C49.4358 22.4271 48.9037 21.1379 48.243 19.9092L52.5378 14.084C52.8012 13.7266 52.7641 13.2305 52.4505 12.9163L46.9346 7.40106C46.6204 7.08744 46.1243 7.04974 45.767 7.31308L39.9603 11.5936C38.7262 10.9233 37.4286 10.3834 36.0904 9.98301L35.0124 2.85842C34.946 2.41912 34.569 2.09473 34.1249 2.09473H26.3252C25.8811 2.09473 25.504 2.41912 25.4376 2.85842L24.3597 9.98301C23.0214 10.3834 21.7239 10.9239 20.4898 11.5936L14.6831 7.31308C14.3258 7.04974 13.8296 7.08685 13.5154 7.40106L8.00018 12.9163C7.68656 13.2299 7.64886 13.7266 7.9122 14.084L12.2071 19.9092C11.5463 21.1379 11.0142 22.4271 10.6204 23.7546L3.45754 24.8385C3.01824 24.9049 2.69385 25.282 2.69385 25.726V33.5257C2.69385 33.9698 3.01824 34.3469 3.45694 34.4133L10.6551 35.5026C11.0531 36.8157 11.584 38.0875 12.2394 39.2977L7.9116 45.1678C7.64826 45.5252 7.68597 46.0213 7.99958 46.3355L13.5148 51.8507C13.8284 52.165 14.3252 52.2021 14.6825 51.9387L20.5718 47.5972C21.7759 48.2436 23.04 48.7666 24.3423 49.1575L25.437 56.3934C25.5034 56.8327 25.8805 57.1571 26.3246 57.1571H34.1243C34.5684 57.1571 34.9454 56.8327 35.0118 56.3934L36.1065 49.1575C37.4089 48.7666 38.6729 48.2436 39.8771 47.5972L45.7664 51.9387C46.1237 52.2021 46.6198 52.1644 46.934 51.8507L52.4499 46.3355C52.7635 46.0219 52.8012 45.5252 52.5372 45.1678L48.2095 39.2977C48.8654 38.0875 49.3963 36.8157 49.7937 35.5026L56.9919 34.4133C57.4306 34.3469 57.755 33.9698 57.755 33.5257V25.726C57.7556 25.2826 57.4312 24.9049 56.9925 24.8385ZM55.9601 32.7537L48.9558 33.8136C48.6039 33.8669 48.3166 34.1231 48.2232 34.466C47.8019 36.0191 47.177 37.5154 46.3661 38.9141C46.1865 39.2235 46.2075 39.6095 46.4199 39.8974L50.6334 45.6125L46.2099 50.0361L40.4774 45.81C40.1901 45.5988 39.8059 45.5766 39.4976 45.7544C38.1025 46.5558 36.614 47.1722 35.0717 47.5858C34.7276 47.6786 34.4702 47.9658 34.4169 48.319L33.3516 55.3628H27.096L26.0307 48.319C25.9774 47.9664 25.7201 47.6786 25.3759 47.5858C23.8336 47.1722 22.3451 46.5558 20.95 45.7544C20.6418 45.5772 20.2569 45.5994 19.9703 45.81L14.2378 50.0361L9.81425 45.6125L14.0277 39.8974C14.2396 39.6095 14.2611 39.2235 14.0816 38.9141C13.2706 37.516 12.6458 36.0191 12.2244 34.466C12.1311 34.1225 11.8438 33.8669 11.4919 33.8136L4.48756 32.7537V26.4981L11.4601 25.4436C11.8138 25.3903 12.1023 25.1317 12.1939 24.7858C12.6087 23.2201 13.2323 21.7071 14.0487 20.2886C14.2264 19.9798 14.2043 19.595 13.993 19.3083L9.81425 13.6399L14.2378 9.21632L19.8895 13.3825C20.1773 13.5944 20.5634 13.6159 20.8734 13.4358C22.2948 12.6098 23.8156 11.9772 25.3921 11.5553C25.7368 11.4631 25.9942 11.1752 26.0475 10.8221L27.096 3.88964H33.3516L34.4002 10.8221C34.4534 11.1752 34.7108 11.4631 35.0555 11.5553C36.632 11.9772 38.1522 12.6098 39.5742 13.4358C39.8837 13.6165 40.2697 13.5944 40.5582 13.3825L46.2099 9.21632L50.6334 13.6399L46.4546 19.3083C46.2434 19.595 46.2212 19.9798 46.399 20.2886C47.2147 21.7071 47.839 23.2201 48.2537 24.7858C48.3453 25.1317 48.6338 25.3897 48.9875 25.4436L55.9601 26.4981V32.7537Z" fill="#FEFEFE"/>
</svg>
