<svg width="28" height="28" viewBox="0 0 28 28" fill="none" xmlns="http://www.w3.org/2000/svg">
<path d="M18.667 21C19.2858 21 19.8793 21.2458 20.3169 21.6834C20.7545 22.121 21.0003 22.7145 21.0003 23.3333C21.0003 23.9522 20.7545 24.5457 20.3169 24.9832C19.8793 25.4208 19.2858 25.6667 18.667 25.6667C18.0482 25.6667 17.4547 25.4208 17.0171 24.9832C16.5795 24.5457 16.3337 23.9522 16.3337 23.3333C16.3337 22.7145 16.5795 22.121 17.0171 21.6834C17.4547 21.2458 18.0482 21 18.667 21ZM18.667 22.1667C18.3576 22.1667 18.0608 22.2896 17.842 22.5084C17.6232 22.7272 17.5003 23.0239 17.5003 23.3333C17.5003 23.6428 17.6232 23.9395 17.842 24.1583C18.0608 24.3771 18.3576 24.5 18.667 24.5C18.9764 24.5 19.2732 24.3771 19.492 24.1583C19.7107 23.9395 19.8337 23.6428 19.8337 23.3333C19.8337 23.0239 19.7107 22.7272 19.492 22.5084C19.2732 22.2896 18.9764 22.1667 18.667 22.1667ZM8.16699 21C8.78583 21 9.37932 21.2458 9.81691 21.6834C10.2545 22.121 10.5003 22.7145 10.5003 23.3333C10.5003 23.9522 10.2545 24.5457 9.81691 24.9832C9.37932 25.4208 8.78583 25.6667 8.16699 25.6667C7.54815 25.6667 6.95466 25.4208 6.51708 24.9832C6.07949 24.5457 5.83366 23.9522 5.83366 23.3333C5.83366 22.7145 6.07949 22.121 6.51708 21.6834C6.95466 21.2458 7.54815 21 8.16699 21ZM8.16699 22.1667C7.85757 22.1667 7.56083 22.2896 7.34203 22.5084C7.12324 22.7272 7.00033 23.0239 7.00033 23.3333C7.00033 23.6428 7.12324 23.9395 7.34203 24.1583C7.56083 24.3771 7.85757 24.5 8.16699 24.5C8.47641 24.5 8.77316 24.3771 8.99195 24.1583C9.21074 23.9395 9.33366 23.6428 9.33366 23.3333C9.33366 23.0239 9.21074 22.7272 8.99195 22.5084C8.77316 22.2896 8.47641 22.1667 8.16699 22.1667ZM21.0003 7H4.98549L7.95699 14H17.5003C17.6817 14.0003 17.8607 13.958 18.0228 13.8765C18.1849 13.7951 18.3256 13.6767 18.4337 13.531L21.9337 8.86433H21.9348C22.0642 8.69092 22.1428 8.48493 22.1619 8.26941C22.1809 8.05388 22.1397 7.8373 22.0427 7.64387C21.9458 7.45045 21.7969 7.28779 21.6129 7.17409C21.4288 7.06038 21.2167 7.00011 21.0003 7ZM17.5003 15.1667H8.01066L7.11699 16.9867L7.00033 17.5C7.00033 17.8094 7.12324 18.1062 7.34203 18.325C7.56083 18.5437 7.85757 18.6667 8.16699 18.6667H21.0003V19.8333H8.16699C7.76072 19.8335 7.36144 19.7276 7.00865 19.5262C6.65586 19.3247 6.36179 19.0346 6.15555 18.6845C5.9493 18.3345 5.83802 17.9367 5.83272 17.5304C5.82742 17.1242 5.92828 16.7236 6.12533 16.3683L6.96533 14.6487L2.72799 4.66667H1.16699V3.5H3.50033L4.49083 5.83333H21.0003C21.4412 5.83338 21.873 5.95831 22.2458 6.19366C22.6186 6.42902 22.917 6.76516 23.1066 7.16316C23.2962 7.56116 23.3692 8.00473 23.3171 8.4425C23.265 8.88026 23.0899 9.2943 22.8122 9.63667L19.4125 14.1703C19.1975 14.4781 18.9114 14.7294 18.5785 14.9029C18.2456 15.0763 17.8757 15.1668 17.5003 15.1667Z" fill="#202020"/>
</svg>
