<svg width="24" height="39" viewBox="0 0 24 39" fill="none" xmlns="http://www.w3.org/2000/svg">
<g clip-path="url(#clip0_1_558)">
<path d="M10.2028 31.2445C9.01875 29.9561 7.31366 29.1462 5.42121 29.1462H0.920898V31.6558C0.920898 35.1922 3.82292 38.0693 7.39009 38.0693H15.2656C18.8328 38.0693 21.7348 35.1922 21.7348 31.6558V29.1462H17.2345C15.3421 29.1462 13.637 29.9561 12.4529 31.2445V24.4468H10.2028V31.2445Z" fill="#40AC6C"/>
<path d="M11.3238 6.87318H11.3327C12.3978 5.2312 14.129 4.05254 16.1448 3.71444C14.4602 1.93019 12.3059 0.570925 11.3282 0C10.3509 0.570701 8.19641 1.93005 6.51172 3.71444C8.52741 4.05254 10.2586 5.2312 11.3238 6.87318Z" fill="#40AC6C"/>
<path d="M17.3387 5.84595C14.6448 5.84595 12.4531 8.0187 12.4531 10.6894V12.5932C14.0343 10.8709 16.3126 9.78805 18.8414 9.78805H20.1654V5.84595H17.3387Z" fill="#40AC6C"/>
<path d="M3.8143 9.78807C6.34304 9.78807 8.62139 10.8708 10.2026 12.5932V10.6894C10.2026 8.0187 8.01092 5.84595 5.31696 5.84595H2.49023V9.78807H3.8143Z" fill="#40AC6C"/>
<path d="M18.8414 12.0173C15.3189 12.0173 12.4531 14.8584 12.4531 18.3505V22.2145H16.2677C19.7902 22.2145 22.656 19.3734 22.656 15.8814V12.0173H18.8414Z" fill="#40AC6C"/>
<path d="M6.38826 22.2146H10.2029V18.3505C10.2029 14.8584 7.33707 12.0173 3.81461 12.0173H0V15.8814C0 19.3734 2.86579 22.2146 6.38826 22.2146Z" fill="#40AC6C"/>
</g>
<defs>
<clipPath id="clip0_1_558">
<rect width="24" height="38.069" fill="white"/>
</clipPath>
</defs>
</svg>
