<svg width="41" height="41" viewBox="0 0 41 41" fill="none" xmlns="http://www.w3.org/2000/svg">
<mask id="mask0_274_106" style="mask-type:alpha" maskUnits="userSpaceOnUse" x="0" y="0" width="41" height="41">
<rect width="41" height="41" fill="#D9D9D9"/>
</mask>
<g mask="url(#mask0_274_106)">
<path fill-rule="evenodd" clip-rule="evenodd" d="M30.545 11.274C30.7559 11.4849 30.8745 11.7711 30.8745 12.0695C30.8745 12.3678 30.7559 12.654 30.545 12.865L22.59 20.8199L30.545 28.7749C30.7559 28.9858 30.8745 29.272 30.8745 29.5704C30.8745 29.8687 30.7559 30.1549 30.545 30.3658C30.334 30.5768 30.0478 30.6954 29.7495 30.6954C29.4511 30.6954 29.165 30.5768 28.954 30.3658L20.999 22.4109L13.0441 30.3658C12.8331 30.5768 12.5469 30.6954 12.2486 30.6954C11.9502 30.6954 11.6641 30.5768 11.4531 30.3658C11.2421 30.1549 11.1236 29.8687 11.1236 29.5704C11.1236 29.272 11.2421 28.9858 11.4531 28.7749L19.408 20.8199L11.4531 12.865C11.2421 12.654 11.1236 12.3678 11.1236 12.0695C11.1236 11.7711 11.2421 11.4849 11.4531 11.274C11.6641 11.063 11.9502 10.9445 12.2486 10.9445C12.5469 10.9445 12.8331 11.063 13.0441 11.274L20.999 19.2289L28.954 11.274C29.165 11.063 29.4511 10.9445 29.7495 10.9445C30.0478 10.9445 30.334 11.063 30.545 11.274V11.274Z" fill="#40AC6C"/>
</g>
</svg>
