<svg width="84" height="84" viewBox="0 0 84 84" fill="none" xmlns="http://www.w3.org/2000/svg">
<circle cx="42" cy="42" r="41.25" stroke="#40AC6C" stroke-width="1.5"/>
<path d="M46.4145 38.6412C46.0163 38.6491 45.6832 38.657 45.3825 38.657C44.7244 38.6729 44.2125 38.6808 43.4974 38.657C43.5949 38.0623 43.8143 36.8253 44.3018 34.2799C44.3993 33.7882 44.1312 33.3124 43.6599 33.1301C43.1886 32.9397 42.6605 33.0983 42.3761 33.5107C41.076 35.4059 38.7034 38.8473 37.4033 40.6236C37.1676 40.9408 37.1433 41.361 37.3301 41.7099C37.517 42.0588 37.8827 42.2729 38.289 42.265C38.6302 42.265 38.939 42.2491 39.2396 42.2412C39.6703 42.2254 40.0847 42.2174 40.5722 42.2174C40.2716 42.9311 39.9547 43.7478 39.6297 44.5884C39.3534 45.31 39.0609 46.0554 38.744 46.8166C38.549 47.2924 38.7277 47.8078 39.1665 48.0774C39.3453 48.1884 39.5403 48.236 39.7353 48.236C40.0197 48.236 40.3041 48.1171 40.5153 47.8951C42.9286 45.31 44.6106 43.3989 47.2514 40.3302C47.5195 40.013 47.5764 39.5927 47.3977 39.22C47.2108 38.8632 46.837 38.6332 46.4145 38.6412ZM40.1741 46.4994C40.3772 45.9919 40.5641 45.5003 40.7591 45.0166C41.2141 43.8509 41.6448 42.7408 42.0348 41.8923C42.1161 41.7099 42.0998 41.5038 41.9942 41.3372C41.8886 41.1707 41.7017 41.0676 41.4985 41.0597C41.1166 41.0438 40.7835 41.0438 40.4747 41.0438C39.9953 41.0438 39.589 41.0518 39.1909 41.0676C38.9878 41.0756 38.7846 41.0756 38.5652 41.0835C39.7597 39.4262 41.6773 36.6587 42.9611 34.7953C42.7661 35.8182 42.6036 36.6825 42.4817 37.3645C42.3842 37.9037 42.3111 38.324 42.2705 38.6174C42.1811 39.1645 42.1567 39.3707 42.3355 39.6006C42.4411 39.7355 42.6117 39.8227 42.7824 39.8306C43.9118 39.894 44.5375 39.8782 45.3988 39.8544C45.61 39.8465 45.8294 39.8465 46.0813 39.8385C43.7981 42.5029 42.2217 44.295 40.1741 46.4994ZM70.9697 26.1203C73.578 30.3785 74.9756 35.3979 75 40.6474C75 40.9725 74.7319 41.2421 74.3906 41.2421C74.0574 41.2421 73.7812 40.9804 73.7812 40.6474C73.7568 35.612 72.4242 30.7987 69.9216 26.7229C69.3203 25.7396 68.654 24.7722 67.9471 23.8524C67.7439 23.5907 67.8008 23.218 68.0689 23.0198C68.3371 22.8215 68.719 22.877 68.9221 23.1387C69.6534 24.0982 70.336 25.0973 70.9697 26.1203ZM31.9592 12.1086C23.1836 14.7491 16.5126 20.8708 13.1811 29.3397C11.7754 32.9001 11.1254 36.7301 11.231 40.7187C11.2391 41.0438 10.971 41.3214 10.6379 41.3293C10.6297 41.3293 10.6297 41.3293 10.6216 41.3293C10.2966 41.3293 10.0203 41.0756 10.0122 40.7504C9.89844 36.6032 10.581 32.6226 12.0436 28.9115C15.5132 20.0937 22.4605 13.7262 31.6017 10.9667C41.5717 7.96137 52.8092 9.74554 61.6742 15.7324C61.9504 15.9227 62.0236 16.2875 61.8286 16.5571C61.6335 16.8267 61.2598 16.8981 60.9835 16.7078C52.4273 10.935 41.5798 9.20633 31.9592 12.1086ZM70.2953 15.9386C70.466 15.7086 70.4497 15.3914 70.2547 15.1853C70.0597 14.9791 69.7347 14.9315 69.4909 15.0822C65.3225 17.5642 60.7641 20.292 56.1813 23.0277C52.1267 25.4542 48.0558 27.8886 44.2287 30.1802C43.9199 30.1247 43.6193 30.0771 43.3024 30.0454C41.6123 29.871 39.9141 30.1168 38.2646 30.7591C34.1775 32.3688 31.3417 36.4922 31.3579 40.798C31.3823 45.0959 34.2587 49.1955 38.354 50.7735C39.6053 51.2572 40.946 51.4872 42.2786 51.4872C45.3094 51.4872 48.3483 50.2977 50.4366 48.1171C52.3623 46.1188 53.4105 43.3593 53.2561 40.7584C53.2236 40.2192 53.1505 39.6799 53.0449 39.1566C55.58 35.7786 58.2127 32.2023 60.7641 28.745C63.9331 24.455 67.1995 20.0224 70.2953 15.9386ZM49.559 47.3003C48.2752 48.6404 46.4876 49.6158 44.5456 50.044C42.6036 50.4722 40.5641 50.3374 38.809 49.6634C37.0539 48.9893 35.4694 47.7365 34.34 46.1347C33.2105 44.525 32.5849 42.6298 32.5767 40.798C32.5686 38.9583 33.178 37.0552 34.2912 35.4455C35.4044 33.8279 36.9808 32.5591 38.7196 31.8692C40.5153 31.1635 42.3598 31.0049 44.1312 31.3776C44.18 31.3935 44.2206 31.4014 44.2693 31.4093C45.2688 31.6393 46.2357 32.0358 47.1539 32.5988C49.5265 34.0658 51.1923 36.4367 51.8017 39.1407C51.8017 39.1487 51.8017 39.1566 51.8098 39.1645C51.9317 39.7037 52.0129 40.2588 52.0454 40.8218C52.1836 43.1135 51.2573 45.532 49.559 47.3003ZM52.6467 37.6737C51.7854 35.168 50.0872 33.0032 47.8039 31.5917C47.1701 31.1952 46.5038 30.878 45.8213 30.6243C49.3722 28.5071 53.1018 26.2709 56.8232 24.0427C60.4472 21.8779 64.0631 19.7131 67.4758 17.6752C64.9406 21.0532 62.3242 24.5978 59.7891 28.0472C57.4245 31.2349 55.0031 34.5257 52.6467 37.6737ZM42.0186 12.7271L42.0592 17.1122C42.0592 17.4373 41.7911 17.7069 41.4579 17.7148C41.4579 17.7148 41.4579 17.7148 41.4498 17.7148C41.1166 17.7148 40.8404 17.4532 40.8404 17.128L40.7997 12.7429C40.7997 12.4178 41.0679 12.1482 41.401 12.1403C41.401 12.1403 41.401 12.1403 41.4092 12.1403C41.7423 12.1403 42.0186 12.402 42.0186 12.7271ZM25.1906 24.1616C25.4344 24.3916 25.4344 24.7643 25.1988 25.0022C25.0769 25.1211 24.9225 25.1766 24.76 25.1766C24.6056 25.1766 24.4512 25.1211 24.3293 25.0101L21.1198 21.9413C20.876 21.7114 20.876 21.3387 21.1116 21.1008C21.3473 20.8629 21.7292 20.8629 21.9729 21.0929L25.1906 24.1616ZM18.9828 41.3769C18.9828 41.702 18.7146 41.9716 18.3815 41.9795L13.8881 42.0192C13.8881 42.0192 13.8881 42.0192 13.8799 42.0192C13.5468 42.0192 13.2705 41.7575 13.2705 41.4324C13.2705 41.1073 13.5387 40.8377 13.8718 40.8297L18.3652 40.7901C18.3652 40.7901 18.3652 40.7901 18.3733 40.7901C18.7065 40.7901 18.9828 41.0518 18.9828 41.3769ZM71.571 41.3769C71.571 41.702 71.3029 41.9716 70.9697 41.9795L66.4763 42.0192C66.4763 42.0192 66.4763 42.0192 66.4682 42.0192C66.1351 42.0192 65.8588 41.7575 65.8588 41.4324C65.8588 41.1073 66.1269 40.8377 66.4601 40.8297L70.9535 40.7901C70.9535 40.7901 70.9535 40.7901 70.9616 40.7901C71.2948 40.7901 71.5629 41.0518 71.571 41.3769Z" fill="#40AC6C"/>
</svg>
