<svg width="84" height="84" viewBox="0 0 84 84" fill="none" xmlns="http://www.w3.org/2000/svg">
<path d="M54.1453 16.9351H30.6287C27.5352 16.9351 25.0176 19.4514 25.0176 22.5436V60.2269C25.0176 63.3198 27.5352 65.8355 30.6287 65.8355H54.1453C57.2381 65.8355 59.7545 63.3198 59.7545 60.2269V22.5436C59.7545 19.4508 57.2387 16.9351 54.1453 16.9351ZM57.8113 60.2269C57.8113 62.2484 56.1668 63.8923 54.1453 63.8923H30.6287C28.6059 63.8923 26.9607 62.2478 26.9607 60.2269V22.5436C26.9607 20.5227 28.6059 18.8782 30.6287 18.8782H54.1453C56.1668 18.8782 57.8113 20.5227 57.8113 22.5436V60.2269Z" fill="#40AC6C"/>
<path d="M49.3573 22.3584H35.285C34.7487 22.3584 34.3135 22.7937 34.3135 23.33C34.3135 23.8669 34.7487 24.3015 35.285 24.3015H49.3573C49.8936 24.3015 50.3288 23.8669 50.3288 23.33C50.3288 22.7937 49.8936 22.3584 49.3573 22.3584Z" fill="#40AC6C"/>
<path d="M42.3924 54.9792C42.3878 54.9792 42.3833 54.9792 42.3788 54.9792C41.5885 54.9812 40.8476 55.2908 40.2905 55.8517C39.7335 56.4126 39.4284 57.1569 39.4317 57.9451C39.4323 58.7327 39.7413 59.4737 40.3002 60.0301C40.8586 60.5859 41.5996 60.8916 42.3885 60.8916C42.3924 60.8916 42.3956 60.8916 42.3995 60.8916C43.1897 60.8883 43.9307 60.5774 44.4871 60.0165C45.0428 59.4556 45.3472 58.7114 45.3433 57.9218C45.3401 57.1335 45.0305 56.3932 44.4702 55.8368C43.9125 55.2837 43.1748 54.9792 42.3924 54.9792ZM43.3996 57.9322C43.4009 58.2023 43.2972 58.4568 43.1068 58.6485C42.9157 58.8409 42.6612 58.9471 42.3917 58.9484C42.1339 58.9452 41.8638 58.8442 41.6721 58.6524C41.481 58.4626 41.3755 58.21 41.3755 57.9393C41.3742 57.6679 41.4784 57.4127 41.6695 57.2203C41.8599 57.0286 42.1145 56.9224 42.3859 56.9217C42.3872 56.9217 42.3891 56.9217 42.3904 56.9217C42.6579 56.9217 42.9105 57.026 43.101 57.2152C43.2933 57.4056 43.3996 57.6595 43.4002 57.9296C43.3996 57.9309 43.3996 57.9315 43.3996 57.9322Z" fill="#40AC6C"/>
<circle cx="42" cy="42" r="41.25" stroke="#40AC6C" stroke-width="1.5"/>
</svg>
