<svg width="84" height="84" viewBox="0 0 84 84" fill="none" xmlns="http://www.w3.org/2000/svg">
<path d="M71.3354 42.678C71.1111 42.2259 70.5563 42.0386 70.0973 42.2574L63.5416 45.3817L59.0741 47.2798C58.3846 47.1053 56.6232 46.6526 55.041 46.1926L54.265 45.9089C54.1514 45.8677 54.0346 45.8508 53.9203 45.8538C53.3717 45.6798 52.8947 45.515 52.5734 45.3762C51.0326 44.7108 48.2796 43.1465 47.17 42.2023C45.9164 41.1393 42.6507 37.1938 42.6179 37.1538C42.3405 36.8181 41.8605 36.7205 41.47 36.9199C40.5717 37.3787 37.6581 38.589 36.1154 38.149C35.3011 37.9114 33.7942 37.1005 33.3679 36.5956C33.0837 36.2599 32.8415 35.0496 32.9694 34.6629C33.3024 34.4975 34.5653 34.7072 35.1837 34.8096C36.242 34.9853 37.2429 35.1514 38.0158 34.9059C39.5208 34.429 42.5555 31.8853 43.287 31.2599C44.0129 30.9999 47.5944 29.8156 50.0923 30.7902C51.4101 31.3047 52.6914 31.4823 53.8344 31.4823C56.3063 31.4823 58.1295 30.649 58.2648 30.5853L67.369 25.8126C67.82 25.5757 67.9905 25.0254 67.7495 24.5823C67.508 24.1399 66.947 23.972 66.4954 24.209L57.432 28.9611C57.4005 28.9757 54.1767 30.4266 50.7774 29.1005C47.8169 27.9441 43.9759 29.0938 42.8113 29.495C41.5194 29.0144 37.8879 27.7399 36.2741 27.9799C34.7679 28.2066 30.3814 28.4096 28.6045 28.0878C27.8545 27.8799 22.157 24.8557 17.178 22.1163C16.7307 21.8708 16.1666 22.0266 15.9164 22.4648C15.6662 22.9023 15.825 23.4569 16.271 23.7023C19.5275 25.4944 27.2132 29.6817 28.2363 29.869C30.4098 30.2641 35.0805 29.9987 36.5528 29.7775C37.2806 29.669 39.2576 30.2029 40.9881 30.7835C39.6944 31.8217 38.1498 32.952 37.4455 33.175C37.1033 33.2835 36.2105 33.135 35.4926 33.0156C34.024 32.772 32.5061 32.5199 31.6164 33.4053C30.6236 34.4035 31.2185 36.9029 31.9401 37.755C32.6846 38.6368 34.5659 39.5938 35.5921 39.8926C37.5889 40.4617 40.3499 39.4265 41.6418 38.8538C42.6191 40.0168 44.8729 42.6568 45.9554 43.575C47.3059 44.7247 50.3338 46.3944 51.8253 47.0386C52.406 47.2895 53.3877 47.6035 54.4368 47.9107L58.7831 49.4992C59.0105 49.6144 59.1829 49.8289 59.2959 50.138C59.4924 50.6756 59.4529 51.3932 59.1989 51.9216C58.8888 52.5616 58.1931 52.895 57.5339 52.8016C57.4036 52.7277 57.2571 52.6865 57.1058 52.6804L51.213 49.6817C50.7589 49.4501 50.1992 49.6247 49.9638 50.0701C49.7284 50.5156 49.9051 51.0647 50.3598 51.2956L56.2946 54.315C56.3125 54.3235 56.331 54.3283 56.3489 54.3368C56.394 54.5671 56.352 54.7271 56.2853 54.938C56.2402 55.0798 56.1877 55.2459 56.1611 55.438C55.7719 56.1434 54.8909 56.4556 54.1353 56.1368L49.1612 54.0162C49.139 54.0065 49.1161 54.0028 49.0933 53.995C49.0636 53.9847 49.034 53.9738 49.0043 53.9671C48.974 53.9598 48.9431 53.9562 48.9129 53.9525C48.8832 53.9489 48.8542 53.9441 48.8251 53.9429C48.7936 53.9416 48.7627 53.9441 48.7318 53.9465C48.7034 53.9483 48.675 53.9489 48.6472 53.9538C48.6163 53.9586 48.5867 53.9665 48.557 53.9744C48.5298 53.9816 48.502 53.9877 48.4754 53.9974C48.447 54.0077 48.4205 54.021 48.3933 54.0338C48.3667 54.0465 48.3401 54.058 48.3148 54.0732C48.2895 54.0877 48.2666 54.1059 48.2432 54.1228C48.2184 54.1404 48.1943 54.158 48.1715 54.178C48.1499 54.1974 48.1307 54.2192 48.1109 54.2404C48.0899 54.2635 48.0683 54.2853 48.0498 54.3101C48.0319 54.3338 48.0176 54.3598 48.0016 54.3853C47.9886 54.4065 47.9738 54.4247 47.9627 54.4471C47.959 54.4544 47.9577 54.4622 47.954 54.4695C47.9509 54.4762 47.946 54.4816 47.9435 54.4883C47.9342 54.5089 47.9305 54.5295 47.9231 54.5507C47.912 54.5816 47.9003 54.6125 47.8928 54.6435C47.8861 54.6713 47.883 54.6998 47.8793 54.7283C47.8749 54.7586 47.87 54.7889 47.8694 54.8192C47.8681 54.8483 47.8706 54.8774 47.8725 54.9065C47.8743 54.9356 47.8755 54.9647 47.8799 54.9938C47.8848 55.0229 47.8928 55.0513 47.9003 55.0798C47.9077 55.1077 47.9145 55.135 47.9244 55.1622C47.9349 55.1895 47.9478 55.2162 47.9608 55.2422C47.9732 55.2683 47.9855 55.2944 48.0003 55.3186C48.0158 55.3441 48.0343 55.3677 48.0522 55.3913C48.0695 55.415 48.0868 55.438 48.1066 55.4598C48.127 55.4822 48.1505 55.5016 48.174 55.5222C48.1962 55.5416 48.2172 55.5616 48.2413 55.5792C48.2666 55.5974 48.2944 55.6131 48.3222 55.6289C48.342 55.641 48.3599 55.655 48.3809 55.6653L49.7068 56.3095C50.4932 56.6762 50.8306 57.6022 50.458 58.375C50.2752 58.7544 49.9533 59.041 49.5517 59.1816C49.1557 59.3204 48.73 59.2992 48.3507 59.1222L44.6221 57.3944L45.6848 55.6259C46.7079 53.9295 46.1321 51.7295 44.4022 50.7223C44.4016 50.7223 44.4009 50.7216 44.4009 50.7216C43.6287 50.2744 42.7557 50.138 41.934 50.272C42.1026 48.652 41.3495 47.0168 39.8587 46.1471C39.8575 46.1459 39.8556 46.1453 39.8538 46.1441C38.3729 45.2908 36.5775 45.412 35.2189 46.2992C34.9489 45.5114 34.4046 44.8095 33.6194 44.352C31.8765 43.3483 29.6276 43.9138 28.6064 45.6114L26.1215 49.7368L20.0397 45.4689C20.0181 45.4538 19.994 45.4435 19.9711 45.4308C19.9489 45.418 19.9291 45.4023 19.9056 45.3914L13.3314 42.2593C12.8718 42.0405 12.3164 42.2277 12.0933 42.6799C11.8697 43.1314 12.0618 43.6756 12.5221 43.895L19.0259 46.9944L25.2634 51.3719C24.7858 52.918 25.424 54.6465 26.9074 55.5047C27.49 55.841 28.1294 56.001 28.7608 56.001C28.9641 56.001 29.1655 55.9786 29.3651 55.9459C29.1896 57.5798 29.9495 59.2295 31.4552 60.1034C32.1205 60.4877 32.8625 60.684 33.6188 60.684C34.0037 60.684 34.3923 60.6331 34.7759 60.5301C35.2479 60.4034 35.6872 60.2004 36.0845 59.938C36.3575 60.721 36.9037 61.4174 37.6865 61.8725C38.2678 62.2083 38.9067 62.3683 39.5375 62.3683C40.7879 62.3683 42.0087 61.7404 42.6914 60.6119L43.6781 58.9689L47.5574 60.7671C48.0226 60.984 48.5212 61.0937 49.0216 61.0937C49.4096 61.0937 49.7988 61.0283 50.1757 60.8962C51.0443 60.5925 51.7406 59.9737 52.1348 59.1537C52.4079 58.5871 52.5012 57.9834 52.4456 57.401L53.4007 57.8083C53.84 57.9944 54.299 58.0816 54.7506 58.0816C56.0827 58.0816 57.356 57.3186 57.9213 56.0459C57.9726 55.9313 57.9985 55.8119 57.9985 55.6871C58.001 55.6538 58.0331 55.5544 58.056 55.4816C58.1239 55.2665 58.2154 54.9786 58.2271 54.6059C59.3392 54.4538 60.3573 53.7725 60.8751 52.7029C61.3409 51.7356 61.4045 50.5186 61.0419 49.5265C60.9183 49.1895 60.7447 48.898 60.5396 48.6404L64.2966 47.0441C64.3034 47.0411 64.3089 47.0368 64.3157 47.0332C64.3213 47.0308 64.3274 47.0301 64.333 47.0271L70.9072 43.8944C71.3669 43.6732 71.559 43.1295 71.3354 42.678ZM27.8483 53.9362C26.9896 53.4398 26.7004 52.3532 27.2033 51.5156L30.2022 46.5356C30.5371 45.9798 31.1394 45.6714 31.7579 45.6714C32.0711 45.6714 32.3887 45.7508 32.6772 45.9168C33.5304 46.4144 33.8158 47.4992 33.3129 48.335L30.3153 53.3156C29.8111 54.1532 28.7034 54.4307 27.8483 53.9362ZM34.2866 58.7744C33.6348 58.9489 32.9639 58.8634 32.3961 58.5356C31.208 57.8459 30.8312 56.2992 31.5546 55.0889L35.437 48.6489C35.9238 47.8362 36.7906 47.3804 37.671 47.3804C38.0961 47.3804 38.5236 47.4865 38.9128 47.7101C40.0935 48.4004 40.4636 49.9417 39.7376 51.1459L35.8577 57.5853C35.5043 58.175 34.9464 58.5974 34.2866 58.7744ZM41.0956 59.6847C40.5902 60.5204 39.4819 60.798 38.6287 60.3047C37.7686 59.8053 37.4795 58.7186 37.9849 57.8816L40.9813 52.9016C41.3168 52.3465 41.9179 52.0386 42.5357 52.0386C42.8502 52.0386 43.1684 52.1186 43.4588 52.2865C44.3101 52.7835 44.5943 53.8659 44.0902 54.7016L42.8329 56.795C42.5722 56.858 42.3405 57.0277 42.2169 57.2847C42.1193 57.4877 42.1088 57.7071 42.1644 57.9083L41.0956 59.6847Z" fill="#40AC6C"/>
<circle cx="42" cy="42" r="41.25" stroke="#40AC6C" stroke-width="1.5"/>
</svg>
