<svg width="84" height="84" viewBox="0 0 84 84" fill="none" xmlns="http://www.w3.org/2000/svg">
<path d="M71.4171 40.4853C70.9935 38.8336 69.952 37.4469 68.4849 36.5796C67.0159 35.7117 65.2975 35.4688 63.6458 35.8937C60.5582 36.6884 58.5859 39.6252 58.8923 42.705L52.4261 44.3703C52.4942 43.8865 52.5414 43.3961 52.5414 42.8935C52.5414 37.0505 47.7879 32.2969 41.9448 32.2969C41.5161 32.2969 41.0957 32.33 40.6799 32.3798L42.555 26.7803C42.9164 26.8432 43.2804 26.8769 43.6438 26.8769C44.618 26.8769 45.5856 26.6514 46.4827 26.2045C48.0087 25.4448 49.1474 24.1351 49.6896 22.5177C50.8062 19.1801 49.0004 15.5548 45.664 14.4369C42.3276 13.3202 38.7011 15.126 37.5825 18.4643C36.5701 21.4866 37.9621 24.7387 40.7142 26.1566L38.5191 32.7134C38.4997 32.7723 38.4867 32.8319 38.4789 32.8915C34.4948 34.2763 31.5931 37.9696 31.3755 42.3663L25.8187 40.5015C26.3453 37.4514 24.5894 34.3806 21.5678 33.3669C19.9498 32.8242 18.2198 32.944 16.6937 33.7031C15.1664 34.4622 14.0271 35.7706 13.4856 37.3867C12.3657 40.723 14.169 44.3496 17.5053 45.4714C18.1764 45.6962 18.8584 45.803 19.5301 45.803C21.8845 45.803 24.1023 44.4875 25.2066 42.3462L31.4765 44.45C32.233 49.5565 36.6323 53.4914 41.9461 53.4914C42.3717 53.4914 42.7895 53.459 43.2014 53.4104L40.845 58.1977C39.5567 57.7896 38.179 57.7942 36.8778 58.2372C35.2643 58.7858 33.9605 59.931 33.2072 61.4609C32.4533 62.9908 32.3399 64.7221 32.8892 66.3362C33.4378 67.951 34.5829 69.2548 36.1141 70.0081C37.0041 70.4466 37.9627 70.6675 38.9265 70.6675C39.6189 70.6675 40.3146 70.5535 40.9901 70.3235C42.6042 69.7736 43.9081 68.6291 44.6601 67.1005C45.4146 65.5693 45.5274 63.8373 44.9781 62.2239C44.5344 60.922 43.6982 59.828 42.5893 59.0559L45.642 52.8534C45.6491 52.8385 45.6524 52.823 45.6588 52.8074C48.547 51.7218 50.8328 49.416 51.8924 46.5155L59.3768 44.5879C59.9066 45.8309 60.8069 46.8731 61.9922 47.5732C62.9884 48.1614 64.0992 48.4626 65.2263 48.4626C65.76 48.4626 66.2976 48.3952 66.8287 48.2585C68.4817 47.833 69.8684 46.7902 70.7351 45.3224C71.6004 43.8541 71.8433 42.1363 71.4171 40.4853ZM39.4246 19.0823C40.2031 16.7609 42.7228 15.5024 45.0468 16.2803C47.3675 17.0575 48.6228 19.5797 47.8462 21.9018C47.4698 23.0268 46.6777 23.9375 45.6167 24.4661C44.5551 24.9939 43.3523 25.0782 42.2273 24.7012C39.9046 23.9226 38.648 21.4024 39.4246 19.0823ZM42.9158 66.2416C42.3918 67.3052 41.4856 68.1019 40.3625 68.484C39.2413 68.8662 38.0352 68.7891 36.9724 68.2651C35.9069 67.7411 35.1108 66.8343 34.7287 65.7112C34.3472 64.5887 34.4262 63.3839 34.9508 62.3191C35.4755 61.2542 36.3816 60.4582 37.5035 60.0767C37.9718 59.9174 38.4537 59.8383 38.9343 59.8383C39.606 59.8383 40.2737 59.9925 40.8936 60.2982C40.8943 60.2982 40.8943 60.2982 40.8943 60.2982C41.9591 60.8222 42.7558 61.7284 43.1373 62.8502C43.5188 63.9714 43.4404 65.1762 42.9158 66.2416ZM18.1232 43.6293C15.8018 42.8495 14.5472 40.326 15.3271 38.0046C15.704 36.8808 16.4968 35.9707 17.5584 35.4429C18.1828 35.1326 18.8552 34.9759 19.532 34.9759C20.0074 34.9759 20.4855 35.0529 20.9492 35.2084C23.2687 35.9869 24.5233 38.5085 23.7454 40.8299C22.9655 43.1519 20.4459 44.4085 18.1232 43.6293ZM41.9455 51.5483C37.1738 51.5483 33.292 47.6659 33.292 42.8935C33.292 38.1218 37.1738 34.2401 41.9455 34.2401C46.7172 34.2401 50.5989 38.1218 50.5989 42.8935C50.5989 47.6659 46.7172 51.5483 41.9455 51.5483ZM69.0607 44.334C68.4577 45.3548 67.4926 46.0803 66.3429 46.3763C65.1958 46.6716 64.0014 46.5032 62.98 45.9002C61.9585 45.2972 61.2338 44.3321 60.9384 43.183C60.3283 40.8118 61.761 38.3867 64.1316 37.7766C64.5015 37.6814 64.8758 37.6341 65.2483 37.6341C66.032 37.6341 66.8047 37.8439 67.4978 38.2533C68.5179 38.8563 69.2421 39.8208 69.5361 40.9685C69.5361 40.9685 69.5368 40.9692 69.5368 40.9698C69.8315 42.1182 69.6631 43.3132 69.0607 44.334Z" fill="#40AC6C"/>
<circle cx="42" cy="42" r="41.25" stroke="#40AC6C" stroke-width="1.5"/>
</svg>
