<svg width="84" height="84" viewBox="0 0 84 84" fill="none" xmlns="http://www.w3.org/2000/svg">
<g clip-path="url(#clip0_225_78)">
<path d="M33.1971 54.8859L28.1437 59.8111C27.6579 60.282 27.4843 60.975 27.6922 61.6208C27.9001 62.2679 28.4475 62.7323 29.1224 62.832L36.1132 63.8451L39.2358 70.1803C39.5383 70.7873 40.1458 71.1636 40.822 71.1636C40.8233 71.1636 40.8253 71.1629 40.8272 71.1629C41.5028 71.1616 42.1084 70.7834 42.4076 70.1765L45.5296 63.8457L52.5184 62.832C53.1947 62.7316 53.7433 62.264 53.9499 61.6124C54.1552 60.966 53.9784 60.2742 53.4958 59.8137L48.4417 54.8872L49.6394 47.8958C49.7521 47.2306 49.4852 46.5679 48.9418 46.169C48.6309 45.9403 48.2656 45.8244 47.8977 45.8244C47.6256 45.8244 47.3523 45.8885 47.0997 46.0167L40.6744 49.2689L34.5742 46.0627C33.9712 45.7447 33.2554 45.7965 32.7055 46.1955C32.1563 46.5939 31.8862 47.2584 32.0008 47.9281L33.1971 54.8859ZM35.1986 55.0608L33.9757 47.9417L40.2145 51.2205C40.493 51.3669 40.8246 51.3694 41.1051 51.2276L47.6671 47.9068L46.4416 55.0614C46.3878 55.3762 46.4921 55.6975 46.7214 55.9209L51.8895 60.9595L44.7459 61.9958C44.4292 62.0418 44.1552 62.2407 44.014 62.5276L40.8214 69.0009L37.6307 62.5276C37.4895 62.2407 37.2156 62.0412 36.8988 61.9958L29.7487 60.9595L34.9188 55.9209C35.1481 55.6975 35.253 55.3756 35.1986 55.0608Z" fill="#40AC6C"/>
<path d="M10.0725 51.1894C10.2499 51.7438 10.7182 52.1422 11.3005 52.2296L15.9135 52.8974L17.9765 57.0797C18.2349 57.5998 18.7564 57.9224 19.3367 57.9224C19.338 57.9224 19.3393 57.9224 19.3406 57.9224C19.9209 57.9211 20.4404 57.5972 20.6963 57.0764L22.7573 52.8974L27.3742 52.229C27.9513 52.1415 28.4189 51.7419 28.5958 51.1868C28.7713 50.6336 28.621 50.0403 28.2078 49.6426L24.8714 46.3885L25.6616 41.7762C25.7594 41.2075 25.5334 40.642 25.0709 40.2994C24.8034 40.1012 24.4886 40.0001 24.1699 40.0001C23.9368 40.0001 23.7023 40.0545 23.4834 40.164L19.2357 42.3138L15.2114 40.1964C14.6926 39.9224 14.0766 39.969 13.6044 40.3156C13.1342 40.6602 12.9069 41.2301 13.0092 41.7937L13.7955 46.3885L10.4611 49.6407C10.044 50.0442 9.89564 50.6382 10.0725 51.1894ZM18.9526 56.2182C18.9526 56.2182 18.9526 56.2176 18.9526 56.2182V56.2182ZM15.5171 47.4236C15.7458 47.2001 15.8501 46.8788 15.7963 46.5641L15.0696 42.3177L18.7745 44.2666C19.053 44.4143 19.3853 44.4162 19.6651 44.2744L23.6025 42.2814L22.8687 46.5641C22.8149 46.8788 22.9192 47.2001 23.1479 47.4236L26.2316 50.4316L21.9716 51.0488C21.6549 51.0942 21.3809 51.2937 21.2397 51.5806L19.3348 55.4436L17.4298 51.5806C17.2886 51.2937 17.0147 51.0942 16.6979 51.0488L12.434 50.4316L15.5171 47.4236Z" fill="#40AC6C"/>
<path d="M54.2722 52.2303L58.8852 52.8981L60.9482 57.0804C61.2066 57.6005 61.728 57.9231 62.3084 57.9231C62.3097 57.9231 62.311 57.9231 62.3123 57.9231C62.8926 57.9218 63.4127 57.5973 63.6686 57.0759L65.7289 52.8981L70.3459 52.2297C70.9236 52.1416 71.3926 51.742 71.5694 51.1862C71.7449 50.6331 71.5946 50.0404 71.182 49.6434L67.845 46.3893L68.6333 41.7775C68.7317 41.2089 68.505 40.6427 68.0426 40.3001C67.7757 40.1019 67.4603 40.0009 67.1416 40.0009C66.9091 40.0009 66.674 40.0553 66.4557 40.1654L62.2093 42.3145L58.1831 40.1971C57.6656 39.9244 57.0515 39.9678 56.58 40.3137C56.1091 40.6563 55.8798 41.2257 55.9802 41.7944L56.7665 46.3893L53.4328 49.6414C53.0169 50.0443 52.8679 50.637 53.0448 51.1895C53.2222 51.7433 53.6899 52.1423 54.2722 52.2303ZM58.4888 47.4237C58.7174 47.2002 58.8217 46.8789 58.768 46.5641L58.0412 42.3177L61.7481 44.2674C62.0273 44.4137 62.3589 44.417 62.6387 44.2738L66.5742 42.2821L65.8423 46.5641C65.7885 46.8789 65.8928 47.2002 66.1215 47.4237L69.2052 50.4316L64.9433 51.0489C64.6265 51.0943 64.3526 51.2937 64.2114 51.5807L62.3064 55.4436L60.4015 51.5807C60.2603 51.2937 59.9863 51.0943 59.6696 51.0489L55.4057 50.4316L58.4888 47.4237Z" fill="#40AC6C"/>
<path d="M42.0799 36.2983C40.6737 36.2983 39.4201 36.0568 38.3192 35.5739C37.2255 35.0909 36.3555 34.4197 35.7092 33.5604C35.07 32.6939 34.7219 31.6889 34.6651 30.5455H37.3498C37.4066 31.2486 37.6481 31.8558 38.0742 32.3672C38.5004 32.8714 39.0579 33.2621 39.7468 33.5391C40.4357 33.8161 41.1992 33.9545 42.0373 33.9545C42.9748 33.9545 43.8058 33.7912 44.5302 33.4645C45.2546 33.1378 45.8228 32.6832 46.2347 32.1009C46.6467 31.5185 46.8526 30.8438 46.8526 30.0767C46.8526 29.2741 46.6538 28.5675 46.256 27.9567C45.8583 27.3388 45.2759 26.8558 44.5089 26.5078C43.7418 26.1598 42.8043 25.9858 41.6964 25.9858H39.9492V23.642H41.6964C42.5629 23.642 43.3228 23.4858 43.9762 23.1733C44.6367 22.8608 45.1516 22.4205 45.521 21.8523C45.8974 21.2841 46.0856 20.6165 46.0856 19.8494C46.0856 19.1108 45.9222 18.468 45.5955 17.9212C45.2688 17.3743 44.8072 16.9482 44.2106 16.6428C43.6211 16.3374 42.9251 16.1847 42.1225 16.1847C41.3697 16.1847 40.6594 16.3232 39.9918 16.6001C39.3313 16.87 38.7915 17.2642 38.3725 17.7827C37.9535 18.294 37.7262 18.9119 37.6907 19.6364H35.1339C35.1765 18.4929 35.521 17.4915 36.1673 16.6321C36.8136 15.7656 37.6587 15.0909 38.7028 14.608C39.7539 14.125 40.908 13.8835 42.1651 13.8835C43.5146 13.8835 44.6722 14.157 45.6381 14.7038C46.604 15.2436 47.3462 15.9574 47.8647 16.8452C48.3832 17.733 48.6424 18.6918 48.6424 19.7216C48.6424 20.9503 48.3192 21.9979 47.6729 22.8643C47.0337 23.7308 46.1637 24.331 45.0629 24.6648V24.8352C46.4407 25.0625 47.5167 25.6484 48.2908 26.593C49.065 27.5305 49.4521 28.6918 49.4521 30.0767C49.4521 31.2628 49.1289 32.3281 48.4826 33.2727C47.8434 34.2102 46.9698 34.9489 45.8619 35.4886C44.7539 36.0284 43.4933 36.2983 42.0799 36.2983Z" fill="#40AC6C"/>
</g>
<circle cx="42" cy="42" r="41.25" stroke="#40AC6C" stroke-width="1.5"/>
<defs>
<clipPath id="clip0_225_78">
<rect width="65" height="65" fill="white" transform="translate(9 6)"/>
</clipPath>
</defs>
</svg>
