<svg width="84" height="84" viewBox="0 0 84 84" fill="none" xmlns="http://www.w3.org/2000/svg">
<path d="M46.1715 58.3288C46.1715 60.3589 44.5306 61.9998 42.4952 61.9998C40.4675 61.9998 38.8242 60.3583 38.8242 58.3288C38.8242 56.2987 40.4681 54.6572 42.4952 54.6572C44.5306 54.6572 46.1715 56.2987 46.1715 58.3288Z" stroke="#40AC6C" stroke-width="3" stroke-miterlimit="10" stroke-linecap="round" stroke-linejoin="round"/>
<path d="M31.0781 49.2202C33.6626 45.7191 37.8116 43.4468 42.495 43.4468C46.9968 43.4468 50.9988 45.5439 53.5927 48.8028" stroke="#40AC6C" stroke-width="3" stroke-miterlimit="10" stroke-linecap="round" stroke-linejoin="round"/>
<path d="M24.125 42.4802C28.4968 37.1942 35.1027 33.8201 42.4953 33.8201C49.6868 33.8201 56.1199 36.9996 60.4823 42.0293" stroke="#40AC6C" stroke-width="3" stroke-miterlimit="10" stroke-linecap="round" stroke-linejoin="round"/>
<path d="M18.0801 36.421C24.0069 29.5947 32.7435 25.2822 42.4954 25.2822C52.0668 25.2822 60.6623 29.4383 66.5839 36.0395" stroke="#40AC6C" stroke-width="3" stroke-miterlimit="10" stroke-linecap="round" stroke-linejoin="round"/>
<circle cx="42" cy="42" r="41.25" stroke="#40AC6C" stroke-width="1.5"/>
</svg>
