<svg width="41" height="41" viewBox="0 0 41 41" fill="none" xmlns="http://www.w3.org/2000/svg">
<mask id="mask0_271_88" style="mask-type:alpha" maskUnits="userSpaceOnUse" x="0" y="0" width="41" height="41">
<rect width="41" height="41" fill="#D9D9D9"/>
</mask>
<g mask="url(#mask0_271_88)">
<rect x="-8" y="20.2842" width="40" height="40" rx="20" transform="rotate(-45 -8 20.2842)" fill="#40AC6C"/>
<path fill-rule="evenodd" clip-rule="evenodd" d="M20.2842 8.28418C20.5494 8.28418 20.8038 8.38954 20.9913 8.57707C21.1788 8.76461 21.2842 9.01896 21.2842 9.28418V19.2842H31.2842C31.5494 19.2842 31.8037 19.3895 31.9913 19.5771C32.1788 19.7646 32.2842 20.019 32.2842 20.2842C32.2842 20.5494 32.1788 20.8038 31.9913 20.9913C31.8037 21.1788 31.5494 21.2842 31.2842 21.2842H21.2842V31.2842C21.2842 31.5494 21.1788 31.8037 20.9913 31.9913C20.8038 32.1788 20.5494 32.2842 20.2842 32.2842C20.019 32.2842 19.7646 32.1788 19.5771 31.9913C19.3895 31.8037 19.2842 31.5494 19.2842 31.2842V21.2842H9.28418C9.01896 21.2842 8.76461 21.1788 8.57707 20.9913C8.38954 20.8038 8.28418 20.5494 8.28418 20.2842C8.28418 20.019 8.38954 19.7646 8.57707 19.5771C8.76461 19.3895 9.01896 19.2842 9.28418 19.2842H19.2842V9.28418C19.2842 9.01896 19.3895 8.76461 19.5771 8.57707C19.7646 8.38954 20.019 8.28418 20.2842 8.28418Z" fill="#FEFEFE"/>
</g>
</svg>
