<svg width="64" height="64" viewBox="0 0 64 64" fill="none" xmlns="http://www.w3.org/2000/svg">
<rect width="64" height="64" rx="12" fill="#40AC6C"/>
<path d="M28.1364 38.5341V37.9545C28.1477 35.9659 28.3239 34.3807 28.6648 33.1989C29.017 32.017 29.5284 31.0625 30.1989 30.3352C30.8693 29.608 31.6761 28.9489 32.6193 28.358C33.3239 27.9034 33.9545 27.4318 34.5114 26.9432C35.0682 26.4545 35.5114 25.9148 35.8409 25.3239C36.1705 24.7216 36.3352 24.0511 36.3352 23.3125C36.3352 22.5284 36.1477 21.8409 35.7727 21.25C35.3977 20.6591 34.892 20.2045 34.2557 19.8864C33.6307 19.5682 32.9375 19.4091 32.1761 19.4091C31.4375 19.4091 30.7386 19.5739 30.0795 19.9034C29.4205 20.2216 28.8807 20.6989 28.4602 21.3352C28.0398 21.9602 27.8125 22.7386 27.7784 23.6705H20.8239C20.8807 21.3977 21.4261 19.5227 22.4602 18.0455C23.4943 16.5568 24.8636 15.4489 26.5682 14.7216C28.2727 13.983 30.1534 13.6136 32.2102 13.6136C34.4716 13.6136 36.4716 13.9886 38.2102 14.7386C39.9489 15.4773 41.3125 16.5511 42.3011 17.9602C43.2898 19.3693 43.7841 21.0682 43.7841 23.0568C43.7841 24.3864 43.5625 25.5682 43.1193 26.6023C42.6875 27.625 42.0795 28.5341 41.2955 29.3295C40.5114 30.1136 39.5852 30.8239 38.517 31.4602C37.6193 31.9943 36.8807 32.5511 36.3011 33.1307C35.733 33.7102 35.3068 34.3807 35.0227 35.142C34.75 35.9034 34.608 36.8409 34.5966 37.9545V38.5341H28.1364ZM31.5114 49.4432C30.375 49.4432 29.4034 49.0455 28.5966 48.25C27.8011 47.4432 27.4091 46.4773 27.4205 45.3523C27.4091 44.2386 27.8011 43.2841 28.5966 42.4886C29.4034 41.6932 30.375 41.2955 31.5114 41.2955C32.5909 41.2955 33.5398 41.6932 34.358 42.4886C35.1761 43.2841 35.5909 44.2386 35.6023 45.3523C35.5909 46.1023 35.392 46.7898 35.0057 47.4148C34.6307 48.0284 34.1364 48.5227 33.5227 48.8977C32.9091 49.2614 32.2386 49.4432 31.5114 49.4432Z" fill="white"/>
</svg>
