<svg width="28" height="28" viewBox="0 0 28 28" fill="none" xmlns="http://www.w3.org/2000/svg">
<path d="M13.417 16.3333C18.2493 16.3333 22.167 18.1614 22.167 20.4166V23.3333H4.66699V20.4166C4.66699 18.1614 8.58466 16.3333 13.417 16.3333ZM21.0003 20.4166C21.0003 18.8066 17.6053 17.4999 13.417 17.4999C9.22866 17.4999 5.83366 18.8066 5.83366 20.4166V22.1666H21.0003V20.4166ZM13.417 5.83325C14.5 5.83325 15.5386 6.26346 16.3043 7.02923C17.0701 7.79501 17.5003 8.83362 17.5003 9.91659C17.5003 10.9996 17.0701 12.0382 16.3043 12.8039C15.5386 13.5697 14.5 13.9999 13.417 13.9999C12.334 13.9999 11.2954 13.5697 10.5296 12.8039C9.76387 12.0382 9.33366 10.9996 9.33366 9.91659C9.33366 8.83362 9.76387 7.79501 10.5296 7.02923C11.2954 6.26346 12.334 5.83325 13.417 5.83325ZM13.417 6.99992C12.6434 6.99992 11.9016 7.30721 11.3546 7.85419C10.8076 8.40117 10.5003 9.14304 10.5003 9.91659C10.5003 10.6901 10.8076 11.432 11.3546 11.979C11.9016 12.526 12.6434 12.8333 13.417 12.8333C14.1905 12.8333 14.9324 12.526 15.4794 11.979C16.0264 11.432 16.3337 10.6901 16.3337 9.91659C16.3337 9.14304 16.0264 8.40117 15.4794 7.85419C14.9324 7.30721 14.1905 6.99992 13.417 6.99992V6.99992Z" fill="black"/>
</svg>
