<svg width="192" height="32" viewBox="0 0 192 32" fill="none" xmlns="http://www.w3.org/2000/svg">
<path d="M24.4316 8.00009C25.5103 10.3468 26.1575 12.6401 26.1575 14.8801C26.1575 20.8534 22.3282 24.3201 19.6855 26.0268C19.7395 26.0268 19.8473 26.0268 19.8473 26.0268C25.2406 25.6534 28.8541 23.7334 31.0114 20.2134L31.4968 19.4134C32.7372 17.0134 33.3844 13.8134 33.3844 9.97343C33.3844 8.42676 33.2766 6.72009 33.0608 5.01343C31.2271 5.54676 26.7507 6.93343 24.4316 8.00009Z" fill="#ACCD72"/>
<path d="M7.87443 14.8801C7.87443 12.6934 8.46768 10.3468 9.60027 8.00009C7.28117 6.93343 2.80476 5.54676 0.971056 5.01343C0.755326 6.77343 0.647461 8.42676 0.647461 9.97343C0.647461 13.8134 1.29465 17.0134 2.5351 19.4134L2.75083 19.7868L3.02049 20.2134C5.1778 23.7334 8.79128 25.6534 14.1845 26.0268H14.3463C11.7036 24.3201 7.87443 20.8534 7.87443 14.8801Z" fill="#AECF7A"/>
<path d="M16.9887 0.266724C15.2629 1.86672 9.27637 7.89339 9.27637 14.8801C9.27637 22.1867 15.6943 25.4401 16.9887 26.0267C18.2831 25.4401 24.7011 22.1867 24.7011 14.8801C24.7011 7.89339 18.7146 1.86672 16.9887 0.266724Z" fill="#51AD32"/>
<path d="M17.0427 31.7334C25.2944 31.7334 32.2517 29.3868 34.0854 27.3068H0C1.83371 29.3868 8.79101 31.7334 17.0427 31.7334Z" fill="#AADAEA"/>
<path d="M42.2293 16.6934V2.93341H37.0518V16.6934H42.2293ZM50.427 4.96008C50.6428 5.06675 50.7506 5.28008 50.7506 5.60008V13.9734C50.7506 14.2401 50.6428 14.4534 50.427 14.5601C50.2113 14.6667 49.8338 14.7201 49.2945 14.7201H49.0248V4.80008C49.7259 4.80008 50.2113 4.85341 50.427 4.96008ZM49.5641 16.6934C51.8832 16.6934 53.5012 16.4267 54.472 15.8934C55.4428 15.3601 55.9282 14.5067 55.9282 13.2801V6.34675C55.9282 5.12008 55.4428 4.21341 54.5798 3.73341C53.663 3.25341 52.099 2.98675 49.8877 2.98675H43.8473V16.7467L49.5641 16.6934ZM64.072 8.26675C63.8563 8.37341 63.4787 8.42675 62.9394 8.42675H62.6697V4.69341C63.3709 4.69341 63.8023 4.74675 64.072 4.85341C64.2877 4.96008 64.3956 5.17341 64.3956 5.49341V7.68008C64.3956 7.94675 64.2877 8.16008 64.072 8.26675ZM62.6697 16.6934V10.3467H62.7237C63.263 10.3467 63.6945 10.4534 63.9641 10.6134C64.2338 10.8267 64.3956 11.0934 64.3956 11.4667V14.4534V14.9334C64.3956 15.2534 64.4495 15.5734 64.5034 15.8401C64.6113 16.1067 64.7192 16.3734 64.881 16.6401H70.0046C69.8428 16.3734 69.7349 16.1067 69.627 15.8401C69.5192 15.5734 69.5192 15.2534 69.5192 14.9867V11.5201C69.5192 10.7201 69.1956 10.1334 68.6563 9.81341C68.063 9.49341 67.0383 9.28008 65.5282 9.22675V9.17341C66.8765 9.12008 67.8473 8.90675 68.4945 8.53341C69.1417 8.16008 69.5192 7.57341 69.5192 6.88008V5.44008C69.5192 4.58675 69.0338 3.94675 68.1169 3.52008C67.1461 3.14675 65.636 2.93341 63.5327 2.93341H57.4922V16.6934H62.6697ZM70.8136 13.4401C70.8136 14.7201 71.299 15.6267 72.2158 16.1601C73.1327 16.6934 74.6967 16.9601 76.854 16.9601C79.0113 16.9601 80.5754 16.6934 81.4922 16.1601C82.4091 15.6267 82.8945 14.7201 82.8945 13.4401V6.18675C82.8945 4.90675 82.4091 4.00008 81.4922 3.46675C80.5754 2.93341 79.0113 2.66675 76.854 2.66675C74.6967 2.66675 73.1327 2.93341 72.2158 3.46675C71.299 4.00008 70.8136 4.90675 70.8136 6.18675V13.4401ZM76.1529 4.74675C76.3147 4.64008 76.5304 4.58675 76.8001 4.58675C77.1237 4.58675 77.3394 4.64008 77.5012 4.74675C77.663 4.85341 77.7169 5.01341 77.7169 5.22675V14.1867C77.7169 14.4001 77.663 14.6134 77.5012 14.7201C77.3394 14.8267 77.1237 14.8801 76.8001 14.8801C76.4765 14.8801 76.2607 14.8267 76.1529 14.7201C75.9911 14.6134 75.9372 14.4534 75.9372 14.1867V5.28008C75.9911 5.06675 76.045 4.85341 76.1529 4.74675ZM91.0383 9.22675C90.8226 9.33341 90.445 9.38675 89.9057 9.38675H89.5821V4.69341H89.7978C90.3911 4.69341 90.8225 4.74675 90.9843 4.85341C91.2001 4.96008 91.3079 5.17341 91.3079 5.49341V8.69341C91.3619 8.96008 91.254 9.12008 91.0383 9.22675ZM89.636 16.6934V11.3601H90.2293C92.4945 11.3601 94.1124 11.1467 95.0832 10.6667C96.054 10.1867 96.5394 9.44008 96.5394 8.37341V5.44008C96.5394 4.58675 96.054 3.94675 95.0832 3.57341C94.1124 3.20008 92.6023 2.98675 90.499 2.98675H84.4585V16.7467H89.636V16.6934ZM97.6181 13.4401C97.6181 14.7201 98.1035 15.6267 99.0203 16.1601C99.9372 16.6934 101.501 16.9601 103.659 16.9601C105.816 16.9601 107.38 16.6934 108.297 16.1601C109.214 15.6267 109.699 14.7201 109.699 13.4401V6.18675C109.699 4.90675 109.214 4.00008 108.297 3.46675C107.38 2.93341 105.816 2.66675 103.659 2.66675C101.501 2.66675 99.9372 2.93341 99.0203 3.46675C98.1035 4.00008 97.6181 4.90675 97.6181 6.18675V13.4401ZM103.011 4.74675C103.173 4.64008 103.389 4.58675 103.659 4.58675C103.982 4.58675 104.252 4.64008 104.36 4.74675C104.521 4.85341 104.575 5.01341 104.575 5.22675V14.1867C104.575 14.4001 104.521 14.6134 104.36 14.7201C104.198 14.8267 103.982 14.8801 103.659 14.8801C103.335 14.8801 103.119 14.8267 103.011 14.7201C102.85 14.6134 102.796 14.4534 102.796 14.1867V5.28008C102.796 5.06675 102.85 4.85341 103.011 4.74675ZM115.362 16.6934V8.53341C115.362 8.26675 115.362 7.89341 115.308 7.46675C115.254 7.04008 115.2 6.56008 115.146 5.97341H115.308C115.47 6.66675 115.632 7.30675 115.793 7.89341C115.955 8.48008 116.063 8.90675 116.171 9.22675L118.814 16.6934H124.908V2.93341H120.863L120.917 8.64008C120.917 8.96008 120.917 9.49341 120.971 10.1867C121.025 10.9334 121.079 11.7334 121.133 12.7467H120.917C120.809 11.8934 120.755 11.2001 120.593 10.5067C120.485 9.86675 120.324 9.28008 120.162 8.74675L118.328 2.93341H111.209V16.6934H115.362ZM131.703 16.6934V2.93341H126.526V16.6934H131.703ZM133.268 13.4401C133.268 14.7201 133.753 15.6267 134.67 16.1601C135.587 16.6934 137.151 16.9601 139.308 16.9601C141.465 16.9601 143.029 16.6934 143.946 16.1601C144.863 15.6267 145.348 14.7201 145.348 13.4401V11.4667H140.171V14.2401C140.171 14.4534 140.117 14.6667 139.955 14.7734C139.793 14.8801 139.578 14.9334 139.254 14.9334C138.93 14.9334 138.715 14.8801 138.607 14.7734C138.499 14.6667 138.391 14.5067 138.391 14.2401V5.28008C138.391 5.06675 138.445 4.85341 138.607 4.80008C138.715 4.69341 138.93 4.64008 139.254 4.64008C139.578 4.64008 139.793 4.69341 139.955 4.80008C140.063 4.90675 140.171 5.06675 140.171 5.28008V7.73341H145.348V6.24008C145.348 4.96008 144.863 4.05341 143.946 3.52008C143.029 2.98675 141.465 2.72008 139.308 2.72008C137.151 2.72008 135.641 2.98675 134.67 3.52008C133.753 4.05341 133.268 4.96008 133.268 6.24008V13.4401ZM150.796 16.6934L151.443 13.0134H154.032L154.517 16.6934H159.856L156.782 2.93341H150.148L145.996 16.6934H150.796ZM152.683 6.82675C152.683 6.72008 152.737 6.50675 152.791 6.18675C152.845 5.86675 152.845 5.44008 152.899 4.90675H153.115C153.115 5.06675 153.115 5.28008 153.115 5.54675C153.115 6.18675 153.169 6.61341 153.223 6.82675L153.816 11.0401H151.874L152.683 6.82675Z" fill="#43A3DB"/>
<path d="M164.818 13.9734V16.8001H161.043V13.9734H164.818Z" fill="#39A3DC"/>
<path d="M171.506 2.98669V16.8H166.328V2.98669H171.506Z" fill="#39A3DC"/>
<path d="M184.018 2.98669V5.76003H180.944V16.8H175.767V5.76003H172.692V2.98669H184.018Z" fill="#39A3DC"/>
<path d="M176.521 29.3334H37.0518V19.04H183.802L176.521 29.3334Z" fill="#D40A5C"/>
<path d="M50.4268 26.6134H47.1369V25.8134L48.2156 24.6934C48.5392 24.3734 48.7549 24.1601 48.8088 24.0001C48.8628 23.8401 48.9706 23.7867 49.0246 23.6801C49.0785 23.5734 49.0785 23.5201 49.0785 23.4134C49.0785 23.3067 49.0246 23.2001 48.9706 23.1467C48.9167 23.0934 48.8088 23.0401 48.647 23.0401C48.4852 23.0401 48.3774 23.0934 48.2156 23.1467C48.0538 23.2534 47.892 23.3601 47.7302 23.5201L47.083 22.7201C47.2987 22.5067 47.5145 22.3467 47.6763 22.2934C47.8381 22.1867 47.9999 22.1334 48.2156 22.0801C48.4313 22.0267 48.5931 22.0267 48.8628 22.0267C49.1324 22.0267 49.4021 22.0801 49.6718 22.1867C49.8875 22.2934 50.1032 22.4534 50.2111 22.6134C50.319 22.8267 50.4268 23.0401 50.4268 23.2534C50.4268 23.4134 50.4268 23.5734 50.3729 23.7334C50.319 23.8934 50.265 24.0534 50.1572 24.1601C50.0493 24.3201 49.9414 24.4801 49.7796 24.6401C49.6178 24.8001 49.2942 25.1201 48.8088 25.5467V25.6001H50.5347V26.6134H50.4268Z" fill="#FEFEFE"/>
<path d="M56.3055 24.3734C56.3055 25.1734 56.1976 25.7601 55.928 26.1334C55.6583 26.5067 55.2269 26.6667 54.6875 26.6667C54.1482 26.6667 53.7167 26.4534 53.4471 26.0801C53.1774 25.7067 53.0156 25.1201 53.0156 24.3734C53.0156 23.5734 53.1235 22.9867 53.3932 22.6134C53.6628 22.2401 54.0943 22.0801 54.6336 22.0801C55.1729 22.0801 55.6044 22.2934 55.874 22.6667C56.1976 23.0401 56.3055 23.6267 56.3055 24.3734ZM54.2561 24.3734C54.2561 24.8534 54.31 25.2267 54.3639 25.4401C54.4179 25.6534 54.5257 25.7067 54.6875 25.7067C54.8493 25.7067 54.9572 25.6001 55.0111 25.3867C55.0651 25.1734 55.119 24.8534 55.119 24.3734C55.119 23.8934 55.0651 23.5201 55.0111 23.3067C54.9572 23.0934 54.8493 22.9867 54.6875 22.9867C54.5257 22.9867 54.4179 23.0934 54.3639 23.2534C54.31 23.5201 54.2561 23.8401 54.2561 24.3734Z" fill="#FEFEFE"/>
<path d="M65.7438 26.6134L65.528 25.7601H64.0719L63.8561 26.6134H62.5078L63.964 22.1334H65.582L67.0921 26.6134H65.7438ZM65.2584 24.7468L65.0426 24.0001C64.9887 23.8401 64.9348 23.6268 64.8808 23.3601C64.8269 23.0934 64.773 22.9334 64.773 22.8268C64.773 22.9334 64.7191 23.0934 64.6651 23.3601C64.6112 23.5734 64.5033 24.0534 64.2876 24.7468H65.2584Z" fill="#FEFEFE"/>
<path d="M74.0492 26.6134H72.4312L70.7593 23.4668H70.7054C70.7593 23.9468 70.7593 24.3201 70.7593 24.5868V26.6134H69.6807V22.1334H71.2986L72.9706 25.2268C72.9166 24.8001 72.9166 24.4268 72.9166 24.1601V22.1334H73.9953V26.6134H74.0492Z" fill="#FEFEFE"/>
<path d="M81.4923 26.6134H79.8744L78.2024 23.4668C78.2564 23.9468 78.2564 24.3201 78.2564 24.5868V26.6134H77.1777V22.1334H78.7957L80.4676 25.2268C80.4137 24.8001 80.4137 24.4268 80.4137 24.1601V22.1334H81.4923V26.6134Z" fill="#FEFEFE"/>
<path d="M84.6201 26.6134V22.1334H85.8606V26.6134H84.6201Z" fill="#FEFEFE"/>
<path d="M96.5929 24.2667C96.5929 25.0134 96.3772 25.6001 95.9457 25.9734C95.5142 26.4001 94.921 26.5601 94.2198 26.5601H92.7637V22.0801H94.3277C95.0288 22.0801 95.6221 22.2401 95.9996 22.6134C96.3772 22.9867 96.5929 23.5734 96.5929 24.2667ZM95.3524 24.3201C95.3524 23.8934 95.2446 23.6267 95.0828 23.4134C94.921 23.2001 94.6513 23.0934 94.3277 23.0934H93.9502V25.6001H94.2198C94.5974 25.6001 94.867 25.4934 95.0288 25.2801C95.2446 25.0667 95.3524 24.7467 95.3524 24.3201Z" fill="#FEFEFE"/>
<path d="M99.5596 26.6134V22.1334H100.8V26.6134H99.5596Z" fill="#FEFEFE"/>
<path d="M109.537 24.0001H111.478V26.4001C110.939 26.5601 110.346 26.6667 109.752 26.6667C109.051 26.6667 108.512 26.4534 108.134 26.0801C107.757 25.6534 107.541 25.1201 107.541 24.3734C107.541 23.6267 107.757 23.0934 108.188 22.6667C108.62 22.2401 109.213 22.0801 109.914 22.0801C110.184 22.0801 110.453 22.0801 110.723 22.1334C110.993 22.1867 111.208 22.2401 111.37 22.3467L110.993 23.3067C110.669 23.1467 110.292 23.0934 109.914 23.0934C109.537 23.0934 109.267 23.2001 109.105 23.4134C108.889 23.6267 108.835 23.9467 108.835 24.3734C108.835 24.8001 108.943 25.1201 109.105 25.3334C109.267 25.5467 109.537 25.6534 109.86 25.6534C110.022 25.6534 110.184 25.6534 110.346 25.6001V24.9067H109.537V24.0001Z" fill="#FEFEFE"/>
<path d="M115.793 24.9601V26.6134H114.553V22.1334H116.009C117.249 22.1334 117.843 22.5601 117.843 23.4668C117.843 24.0001 117.573 24.3734 117.088 24.6934L118.382 26.6668H116.98L116.009 25.0134H115.793V24.9601ZM115.793 24.0534H116.009C116.44 24.0534 116.656 23.8934 116.656 23.5201C116.656 23.2001 116.44 23.0401 116.009 23.0401H115.793V24.0534Z" fill="#FEFEFE"/>
<path d="M125.286 24.3734C125.286 25.1201 125.124 25.7067 124.746 26.0801C124.369 26.4534 123.829 26.6667 123.128 26.6667C122.427 26.6667 121.888 26.4534 121.51 26.0801C121.133 25.7067 120.917 25.1201 120.917 24.3734C120.917 23.6267 121.079 23.0401 121.456 22.6667C121.834 22.2934 122.373 22.0801 123.074 22.0801C123.775 22.0801 124.315 22.2934 124.692 22.6667C125.07 23.0401 125.286 23.6267 125.286 24.3734ZM122.157 24.3734C122.157 25.2267 122.481 25.6534 123.074 25.6534C123.398 25.6534 123.614 25.5467 123.775 25.3334C123.937 25.1201 123.991 24.8001 123.991 24.3734C123.991 23.9467 123.937 23.5734 123.775 23.3601C123.614 23.1467 123.398 23.0401 123.074 23.0401C122.481 23.0401 122.157 23.4667 122.157 24.3734Z" fill="#FEFEFE"/>
<path d="M133.106 26.6134H131.65L131.218 24.6401C131.218 24.5334 131.164 24.3734 131.11 24.1601C131.056 23.9467 131.056 23.7334 131.002 23.5734C131.002 23.6801 130.948 23.8934 130.948 24.0534C130.894 24.2667 130.894 24.4267 130.841 24.5867C130.787 24.7467 130.679 25.4401 130.409 26.6134H128.953L127.82 22.1334H129.007L129.492 24.3734C129.6 24.8534 129.654 25.2801 129.708 25.5467C129.708 25.3334 129.762 25.0667 129.87 24.6934C129.924 24.3201 129.978 24.0534 130.085 23.7867L130.463 22.0801H131.596L131.973 23.7867C132.027 24.0534 132.081 24.3734 132.189 24.7467C132.243 25.1201 132.297 25.3867 132.351 25.5467C132.351 25.3334 132.459 24.9067 132.566 24.3734L133.052 22.1334H134.238L133.106 26.6134Z" fill="#FEFEFE"/>
<path d="M143.73 25.2267C143.73 25.4934 143.676 25.7601 143.514 25.9734C143.352 26.1867 143.191 26.3467 142.921 26.4534C142.651 26.5601 142.328 26.6134 141.95 26.6134C141.627 26.6134 141.411 26.6134 141.195 26.5601C140.979 26.5067 140.764 26.4534 140.548 26.3467V25.2801C140.764 25.3867 141.033 25.4934 141.249 25.5467C141.465 25.6001 141.734 25.6534 141.95 25.6534C142.112 25.6534 142.274 25.6001 142.328 25.5467C142.435 25.4934 142.435 25.3867 142.435 25.2801C142.435 25.2267 142.435 25.1734 142.382 25.1201C142.328 25.0667 142.274 25.0134 142.22 24.9601C142.166 24.9067 141.95 24.8001 141.626 24.6934C141.357 24.5867 141.087 24.4267 140.979 24.3201C140.871 24.2134 140.71 24.0534 140.656 23.8934C140.602 23.7334 140.548 23.5201 140.548 23.3067C140.548 22.8801 140.71 22.5601 140.979 22.3467C141.303 22.1334 141.68 22.0267 142.22 22.0267C142.705 22.0267 143.191 22.1334 143.676 22.3467L143.298 23.2534C142.867 23.0401 142.489 22.9867 142.22 22.9867C142.058 22.9867 141.95 23.0401 141.896 23.0934C141.842 23.1467 141.788 23.2001 141.788 23.3067C141.788 23.4134 141.842 23.4667 141.95 23.5201C142.058 23.5734 142.274 23.7334 142.705 23.8934C143.083 24.0534 143.352 24.2667 143.514 24.4267C143.676 24.6934 143.73 24.9601 143.73 25.2267Z" fill="#FEFEFE"/>
<path d="M150.472 26.6134H149.232V24.8001H147.829V26.6134H146.589V22.1334H147.829V23.7868H149.232V22.1334H150.472V26.6134Z" fill="#FEFEFE"/>
<path d="M157.807 24.3734C157.807 25.1201 157.645 25.7067 157.268 26.0801C156.89 26.4534 156.351 26.6667 155.65 26.6667C154.949 26.6667 154.409 26.4534 154.032 26.0801C153.654 25.7067 153.438 25.1201 153.438 24.3734C153.438 23.6267 153.6 23.0401 153.978 22.6667C154.355 22.2934 154.895 22.0801 155.596 22.0801C156.297 22.0801 156.836 22.2934 157.214 22.6667C157.591 23.0401 157.807 23.6267 157.807 24.3734ZM154.733 24.3734C154.733 25.2267 155.056 25.6534 155.65 25.6534C155.973 25.6534 156.189 25.5467 156.351 25.3334C156.513 25.1201 156.567 24.8001 156.567 24.3734C156.567 23.9467 156.513 23.5734 156.351 23.3601C156.189 23.1467 155.973 23.0401 155.65 23.0401C155.003 23.0401 154.733 23.4667 154.733 24.3734Z" fill="#FEFEFE"/>
<path d="M164.062 23.5734C164.062 24.0534 163.901 24.4801 163.631 24.7468C163.307 25.0134 162.93 25.1734 162.337 25.1734H162.013V26.6668H160.772V22.1868H162.337C162.93 22.1868 163.361 22.2934 163.631 22.5601C163.954 22.7201 164.062 23.0934 164.062 23.5734ZM162.013 24.1068H162.229C162.39 24.1068 162.552 24.0534 162.66 23.9468C162.768 23.8401 162.822 23.6801 162.822 23.5201C162.822 23.2001 162.66 23.0934 162.337 23.0934H162.013V24.1068Z" fill="#FEFEFE"/>
</svg>
