<svg width="101" height="27" viewBox="0 0 101 27" fill="none" xmlns="http://www.w3.org/2000/svg">
<path d="M77.6438 7.50317H72.2782C71.9626 7.50317 71.647 7.8188 71.4892 8.13442L69.2798 22.0219C69.2798 22.3376 69.4376 22.4954 69.7532 22.4954H72.5938C72.9095 22.4954 73.0673 22.3376 73.0673 22.0219L73.6985 18.0766C73.6985 17.761 74.0142 17.4454 74.4876 17.4454H76.2235C79.8532 17.4454 81.9048 15.7094 82.3782 12.2375C82.6938 10.8172 82.3782 9.55474 81.747 8.76567C80.8001 7.97661 79.3798 7.50317 77.6438 7.50317ZM78.2751 12.711C77.9595 14.6047 76.5392 14.6047 75.1188 14.6047H74.172L74.8032 10.975C74.8032 10.8172 74.961 10.6594 75.2767 10.6594H75.5923C76.5392 10.6594 77.486 10.6594 77.9595 11.2907C78.2751 11.4485 78.2751 11.9219 78.2751 12.711Z" fill="#139AD6"/>
<path d="M38.9798 7.50317H33.6142C33.2985 7.50317 32.9829 7.8188 32.8251 8.13442L30.6157 22.0219C30.6157 22.3376 30.7735 22.4954 31.0892 22.4954H33.6142C33.9298 22.4954 34.2454 22.1797 34.4032 21.8641L35.0345 18.0766C35.0345 17.761 35.3501 17.4454 35.8235 17.4454H37.5595C41.1892 17.4454 43.2407 15.7094 43.7142 12.2375C44.0298 10.8172 43.7142 9.55474 43.0829 8.76567C42.136 7.97661 40.8735 7.50317 38.9798 7.50317ZM39.611 12.711C39.2954 14.6047 37.8751 14.6047 36.4548 14.6047H35.6657L36.297 10.975C36.297 10.8172 36.4548 10.6594 36.7704 10.6594H37.086C38.0329 10.6594 38.9798 10.6594 39.4532 11.2907C39.611 11.4485 39.7688 11.9219 39.611 12.711Z" fill="#263B80"/>
<path d="M55.2343 12.5532H52.7093C52.5515 12.5532 52.2359 12.711 52.2359 12.8688L52.0781 13.6579L51.9203 13.3422C51.289 12.5532 50.1843 12.2375 48.9218 12.2375C46.0812 12.2375 43.5562 14.4469 43.0828 17.4454C42.7671 19.0235 43.2406 20.4438 44.0296 21.3907C44.8187 22.3375 45.9234 22.6532 47.3437 22.6532C49.7109 22.6532 50.9734 21.2329 50.9734 21.2329L50.8156 22.0219C50.8156 22.3375 50.9734 22.4954 51.289 22.4954H53.6562C53.9718 22.4954 54.2874 22.1797 54.4453 21.8641L55.8656 13.0266C55.7078 12.8688 55.3921 12.5532 55.2343 12.5532ZM51.6046 17.6032C51.289 19.0235 50.1843 20.1282 48.6062 20.1282C47.8171 20.1282 47.1859 19.8125 46.8703 19.4969C46.5546 19.0235 46.3968 18.3922 46.3968 17.6032C46.5546 16.1829 47.8171 15.0782 49.2374 15.0782C50.0265 15.0782 50.4999 15.3938 50.9734 15.7094C51.4468 16.1829 51.6046 16.9719 51.6046 17.6032Z" fill="#263B80"/>
<path d="M93.7407 12.5532H91.2157C91.0578 12.5532 90.7422 12.711 90.7422 12.8688L90.5844 13.6579L90.4266 13.3422C89.7953 12.5532 88.6907 12.2375 87.4282 12.2375C84.5875 12.2375 82.0625 14.4469 81.5891 17.4454C81.2735 19.0235 81.7469 20.4438 82.536 21.3907C83.325 22.3375 84.4297 22.6532 85.85 22.6532C88.2172 22.6532 89.4797 21.2329 89.4797 21.2329L89.3219 22.0219C89.3219 22.3375 89.4797 22.4954 89.7954 22.4954H92.1625C92.4782 22.4954 92.7938 22.1797 92.9516 21.8641L94.3719 13.0266C94.2141 12.8688 94.0563 12.5532 93.7407 12.5532ZM90.111 17.6032C89.7953 19.0235 88.6907 20.1282 87.1125 20.1282C86.3235 20.1282 85.6922 19.8125 85.3766 19.4969C85.061 19.0235 84.9032 18.3922 84.9032 17.6032C85.061 16.1829 86.3235 15.0782 87.7438 15.0782C88.5328 15.0782 89.0063 15.3938 89.4797 15.7094C90.111 16.1829 90.2688 16.9719 90.111 17.6032Z" fill="#139AD6"/>
<path d="M68.9641 12.5532H66.2812C65.9656 12.5532 65.8078 12.711 65.65 12.8688L62.1781 18.2345L60.6 13.1845C60.4422 12.8688 60.2844 12.711 59.8109 12.711H57.2859C56.9703 12.711 56.8125 13.0267 56.8125 13.3423L59.6531 21.7063L56.9703 25.4938C56.8125 25.8095 56.9703 26.2829 57.2859 26.2829H59.8109C60.1266 26.2829 60.2844 26.1251 60.4422 25.9673L69.1219 13.5001C69.5953 13.0267 69.2797 12.5532 68.9641 12.5532Z" fill="#263B80"/>
<path d="M96.7392 7.97666L94.5298 22.1798C94.5298 22.4954 94.6876 22.6532 95.0032 22.6532H97.2126C97.5282 22.6532 97.8438 22.3376 98.0017 22.022L100.211 8.13447C100.211 7.81885 100.053 7.66103 99.7376 7.66103H97.2126C97.0548 7.50322 96.897 7.66103 96.7392 7.97666Z" fill="#139AD6"/>
<path d="M18.9375 2.76875C17.8328 1.50625 15.7812 0.875 12.9406 0.875H5.05C4.57656 0.875 4.10313 1.34844 3.94531 1.82188L0.789062 22.4953C0.789062 22.9688 1.10469 23.2844 1.42031 23.2844H6.3125L7.575 15.5516V15.8672C7.73281 15.3938 8.20625 14.9203 8.67969 14.9203H11.0469C15.6234 14.9203 19.0953 13.0266 20.2 7.81875C20.2 7.66094 20.2 7.50313 20.2 7.34531C20.0422 7.34531 20.0422 7.34531 20.2 7.34531C20.3578 5.29375 20.0422 4.03125 18.9375 2.76875Z" fill="#263B80"/>
<path d="M20.042 7.34521C20.042 7.50303 20.042 7.66084 20.042 7.81865C18.9373 13.1843 15.4654 14.9202 10.8889 14.9202H8.52168C8.04824 14.9202 7.5748 15.3937 7.41699 15.8671L5.83887 25.4936C5.83887 25.8093 5.99668 26.1249 6.47012 26.1249H10.5732C11.0467 26.1249 11.5201 25.8093 11.5201 25.3358V25.178L12.3092 20.2858V19.9702C12.3092 19.4968 12.7826 19.1811 13.2561 19.1811H13.8873C17.8326 19.1811 20.9889 17.603 21.7779 12.8687C22.0936 10.9749 21.9357 9.23896 20.9889 8.13428C20.8311 7.81865 20.5154 7.50303 20.042 7.34521Z" fill="#139AD6"/>
<path d="M18.9377 6.87187C18.7799 6.87187 18.6221 6.71406 18.4643 6.71406C18.3064 6.71406 18.1486 6.71406 17.9908 6.55625C17.3596 6.39844 16.7283 6.39844 15.9393 6.39844H9.78457C9.62676 6.39844 9.46895 6.39844 9.31113 6.55625C8.99551 6.71406 8.83769 7.02969 8.83769 7.34531L7.5752 15.5516V15.8672C7.73301 15.3938 8.20644 14.9203 8.67988 14.9203H11.0471C15.6236 14.9203 19.0955 13.0266 20.2002 7.81875C20.2002 7.66094 20.2002 7.50313 20.358 7.34531C20.0424 7.1875 19.8846 7.02969 19.5689 7.02969C19.0955 6.87187 19.0955 6.87187 18.9377 6.87187Z" fill="#232C65"/>
</svg>
