<svg width="167" height="185" viewBox="0 0 167 185" fill="none" xmlns="http://www.w3.org/2000/svg">
<mask id="mask0_219_84" style="mask-type:alpha" maskUnits="userSpaceOnUse" x="0" y="0" width="167" height="185">
<rect width="167" height="185" fill="#D9D9D9"/>
</mask>
<g mask="url(#mask0_219_84)">
<line x1="111.669" y1="75.271" x2="166.378" y2="0.484623" stroke="#40AC6C"/>
<circle cx="66" cy="120" r="64.5" stroke="#40AC6C"/>
<path d="M80.2852 129.665C80.2836 133.175 79.3584 136.622 77.6024 139.661C75.8468 142.7 73.3224 145.224 70.2824 146.978C67.2428 148.732 63.7948 149.656 60.2852 149.656C56.7755 149.656 53.3276 148.732 50.2878 146.978C47.2481 145.224 44.7235 142.7 42.9677 139.661C41.212 136.622 40.2868 133.175 40.2852 129.665C40.2835 126.156 41.2055 122.707 42.9585 119.667H42.9552L60.2885 93L64.6193 99.6667" stroke="#40AC6C" stroke-width="1.5" stroke-linecap="round" stroke-linejoin="round"/>
<path d="M60.291 132.997V121.568V132.997ZM60.291 121.568V112.711C60.291 110.502 62.0819 108.711 64.291 108.711H67.7196C69.9288 108.711 71.7196 110.502 71.7196 112.711V117.568C71.7196 119.777 69.9288 121.568 67.7196 121.568H60.291Z" stroke="#40AC6C" stroke-width="1.5" stroke-linecap="round" stroke-linejoin="round"/>
<path d="M80.2913 121.575V97.2891" stroke="#40AC6C" stroke-width="1.5" stroke-linecap="round" stroke-linejoin="round"/>
<path d="M94.5759 121.575V97.2891" stroke="#40AC6C" stroke-width="1.5" stroke-linecap="round" stroke-linejoin="round"/>
<path d="M80.2913 108.711H94.5769" stroke="#40AC6C" stroke-width="1.5" stroke-linecap="round" stroke-linejoin="round"/>
</g>
</svg>
