<svg width="130" height="211" viewBox="0 0 130 211" fill="none" xmlns="http://www.w3.org/2000/svg">
<mask id="mask0_219_89" style="mask-type:alpha" maskUnits="userSpaceOnUse" x="0" y="0" width="130" height="211">
<rect width="130" height="211" fill="#D9D9D9"/>
</mask>
<g mask="url(#mask0_219_89)">
<line x1="82.8134" y1="82.996" x2="114.347" y2="0.121609" stroke="#40AC6C"/>
<circle cx="65.0002" cy="146" r="64.5" stroke="#40AC6C"/>
<path d="M82.9009 162.271C80.7652 149.569 66.5472 114.758 65.943 113.283C65.7588 112.834 65.3219 112.54 64.8365 112.54C64.351 112.54 63.9133 112.833 63.73 113.283C63.1257 114.758 48.9133 149.569 46.7776 162.271C46.0936 166.328 47.2918 170.425 50.1498 173.806C53.6662 177.965 59.2936 180.549 64.8357 180.549C70.3801 180.549 76.0099 177.964 79.5279 173.803C82.3875 170.421 83.5849 166.326 82.9009 162.271ZM78.5 173C75.4236 176.639 69.6954 179 64.8357 179C59.9784 179 54.0748 176.137 51 172.5C48.6028 169.665 47.4348 166.352 48 163C49.7506 152.59 61.375 123.141 64.8365 114.5C68.2995 123.141 79.7486 151.859 81.5 162.271C82.0644 165.622 80.8972 170.165 78.5 173Z" fill="#40AC6C"/>
<path d="M60.8464 170.5C57.3938 168.05 55.8405 163.258 56.4998 159.352C56.8481 157.275 57.9678 154.12 59.0408 150.55C59.0408 150.55 59.6738 149.938 59.0408 149.749C58.4094 149.557 57.7422 149.917 57.5516 150.55C56.4499 154.215 55.7069 157.177 55.3426 159.352C54.5295 164.169 56.6389 169.016 60.8464 172.002C61.0569 172.151 61.2985 172.222 61.5376 172.222C61.9123 172.222 62.2806 172.047 62.5142 171.719C62.896 171.18 61.3846 170.882 60.8464 170.5Z" fill="#40AC6C"/>
</g>
</svg>
