<svg width="65" height="65" viewBox="0 0 65 65" fill="none" xmlns="http://www.w3.org/2000/svg">
<path d="M57.6104 49.7806L35.0436 8.56505C34.4413 7.4654 33.339 6.80859 32.0948 6.80859C30.8505 6.80859 29.7483 7.4654 29.146 8.56505L6.57912 49.7806C5.99817 50.8413 6.01957 52.0959 6.63617 53.1366C7.24889 54.1707 8.32974 54.788 9.52859 54.788H54.6603C55.8592 54.788 56.94 54.1707 57.5527 53.1366C58.17 52.0966 58.1914 50.8413 57.6104 49.7806ZM55.8799 52.1452C55.6173 52.5887 55.1732 52.8429 54.661 52.8429H9.52924C9.01702 52.8429 8.57288 52.5887 8.31029 52.1452C8.0477 51.7017 8.03797 51.1668 8.28565 50.7142L30.8525 9.49872C31.1086 9.03188 31.5728 8.75308 32.0954 8.75308C32.618 8.75308 33.0823 9.03188 33.3384 9.49872L55.9052 50.7142C56.1522 51.1668 56.1425 51.7017 55.8799 52.1452Z" fill="#FEFEFE"/>
<path d="M33.7058 45.1333C33.7573 44.2396 33.0745 43.4734 32.1808 43.4219C31.2871 43.3704 30.5209 44.0532 30.4694 44.9469C30.4179 45.8406 31.1007 46.6068 31.9944 46.6583C32.8881 46.7097 33.6543 46.027 33.7058 45.1333Z" fill="#FEFEFE"/>
<path d="M32.0948 38.5785C32.6316 38.5785 33.0673 38.1434 33.0673 37.6059V22.0448C33.0673 21.5073 32.6316 21.0723 32.0948 21.0723C31.5579 21.0723 31.1222 21.5073 31.1222 22.0448V37.6059C31.1222 38.1434 31.5579 38.5785 32.0948 38.5785Z" fill="#FEFEFE"/>
</svg>
