<svg width="317" height="130" viewBox="0 0 317 130" fill="none" xmlns="http://www.w3.org/2000/svg">
<mask id="mask0_219_113" style="mask-type:alpha" maskUnits="userSpaceOnUse" x="0" y="0" width="317" height="130">
<rect width="317" height="130" fill="#D9D9D9"/>
</mask>
<g mask="url(#mask0_219_113)">
<line x1="130.93" y1="69.8429" x2="315.93" y2="43.5051" stroke="#40AC6C"/>
<circle cx="65" cy="65" r="64.5" stroke="#40AC6C"/>
<path d="M57.8574 50.6652H69.9992C71.5476 50.6948 73.0732 50.2925 74.4056 49.5034C75.7376 48.7144 76.8236 47.5697 77.542 46.1979C78.26 44.8261 78.5816 43.2813 78.4708 41.7369C78.36 40.1925 77.8212 38.7095 76.9144 37.4542C76.008 36.199 74.7696 35.2212 73.3384 34.6304C71.9068 34.0396 70.3396 33.8593 68.8116 34.1096C67.2836 34.36 65.8552 35.0311 64.6874 36.0477C63.5195 37.0643 62.6579 38.3862 62.1993 39.8652" stroke="#40AC6C" stroke-width="1.5" stroke-linecap="round" stroke-linejoin="round"/>
<path d="M66.4276 64.0015H86.666C88.214 63.9719 89.7396 64.3739 91.072 65.1631C92.404 65.9523 93.4904 67.0967 94.2084 68.4687C94.9264 69.8403 95.248 71.3851 95.1372 72.9295C95.0264 74.4739 94.4876 75.9571 93.5808 77.2123C92.6744 78.4675 91.436 79.4455 90.0048 80.0363C88.5736 80.6271 87.006 80.8071 85.478 80.5571C83.95 80.3067 82.522 79.6355 81.354 78.6187C80.186 77.6023 79.3244 76.2803 78.866 74.8015" stroke="#40AC6C" stroke-width="1.5" stroke-linecap="round" stroke-linejoin="round"/>
<path d="M38.1463 72.912C37.0194 74.9052 36.4267 77.166 36.4277 79.4668C36.4288 81.7676 37.0235 84.028 38.1523 86.02C39.281 88.0124 40.9039 89.6668 42.8581 90.8168C44.8122 91.9672 47.0287 92.5724 49.2849 92.5724C51.5411 92.5724 53.7576 91.9672 55.7117 90.8168C57.6659 89.6668 59.2888 88.0124 60.4175 86.02C61.5463 84.028 62.141 81.7676 62.142 79.4668C62.1431 77.166 61.5504 74.9052 60.4235 72.912L49.287 55.4297L38.1442 72.912H38.1463Z" stroke="#40AC6C" stroke-width="1.5" stroke-linecap="round" stroke-linejoin="round"/>
</g>
</svg>
