<svg width="130" height="223" viewBox="0 0 130 223" fill="none" xmlns="http://www.w3.org/2000/svg">
<mask id="mask0_219_88" style="mask-type:alpha" maskUnits="userSpaceOnUse" x="0" y="0" width="130" height="223">
<rect width="130" height="223" fill="#D9D9D9"/>
</mask>
<g mask="url(#mask0_219_88)">
<line x1="72.3054" y1="93.9964" x2="72.9369" y2="0.350234" stroke="#40AC6C"/>
<circle cx="65.0002" cy="158" r="64.5" stroke="#40AC6C"/>
<path d="M48.8092 167C46.2674 168.468 44.2808 170.733 43.1575 173.444C42.0343 176.156 41.8372 179.163 42.5969 181.998C43.3566 184.833 45.0305 187.338 47.3591 189.125C49.6877 190.912 52.5408 191.88 55.4759 191.88C58.411 191.88 61.2642 190.912 63.5927 189.125C65.9212 187.338 67.5952 184.833 68.3548 181.998C69.1144 179.163 68.9176 176.156 67.7944 173.444C66.6712 170.733 64.6845 168.468 62.1426 167V138.667C62.1426 136.899 61.4402 135.203 60.19 133.953C58.9397 132.702 57.244 132 55.4759 132C53.7078 132 52.0121 132.702 50.7619 133.953C49.5116 135.203 48.8092 136.899 48.8092 138.667V167Z" stroke="#40AC6C" stroke-width="1.5" stroke-linecap="round" stroke-linejoin="round"/>
<path d="M48.8105 152H62.1439" stroke="#40AC6C" stroke-width="1.5" stroke-linecap="round" stroke-linejoin="round"/>
<path d="M75.1001 149.567C74.0981 151.407 73.5713 153.494 73.5725 155.618C73.5733 157.742 74.1021 159.828 75.1053 161.667C76.1085 163.506 77.5513 165.033 79.2881 166.095C81.0253 167.156 82.9953 167.716 85.0009 167.716C87.0065 167.716 88.9765 167.156 90.7137 166.095C92.4505 165.033 93.8933 163.506 94.8965 161.667C95.9001 159.828 96.4285 157.742 96.4297 155.618C96.4305 153.494 95.9037 151.407 94.9017 149.567L85.0029 133.43L75.0981 149.567H75.1001Z" stroke="#40AC6C" stroke-width="1.5" stroke-linecap="round" stroke-linejoin="round"/>
</g>
</svg>
