<svg width="64" height="64" viewBox="0 0 64 64" fill="none" xmlns="http://www.w3.org/2000/svg">
<rect width="64" height="64" rx="12" fill="#40AC6C"/>
<g clip-path="url(#clip0_1_1195)">
<path d="M30.203 43.2445C29.019 41.9561 27.3139 41.1462 25.4215 41.1462H20.9211V43.6558C20.9211 47.1922 23.8232 50.0693 27.3903 50.0693H35.2659C38.833 50.0693 41.7351 47.1922 41.7351 43.6558V41.1462H37.2348C35.3423 41.1462 33.6372 41.9561 32.4532 43.2445V36.4468H30.203V43.2445Z" fill="#FEFEFE"/>
<path d="M31.3235 18.8732H31.3324C32.3976 17.2312 34.1287 16.0525 36.1445 15.7144C34.4599 13.9302 32.3056 12.5709 31.3279 12C30.3507 12.5707 28.1962 13.93 26.5115 15.7144C28.5272 16.0525 30.2584 17.2312 31.3235 18.8732Z" fill="#FEFEFE"/>
<path d="M37.3387 17.8461C34.6448 17.8461 32.4531 20.0188 32.4531 22.6896V24.5933C34.0343 22.871 36.3126 21.7882 38.8414 21.7882H40.1654V17.8461H37.3387Z" fill="#FEFEFE"/>
<path d="M23.8148 21.7882C26.3435 21.7882 28.6219 22.8709 30.2031 24.5934V22.6896C30.2031 20.0188 28.0114 17.8461 25.3174 17.8461H22.4907V21.7882H23.8148Z" fill="#FEFEFE"/>
<path d="M38.8414 24.0173C35.3189 24.0173 32.4531 26.8584 32.4531 30.3505V34.2145H36.2677C39.7902 34.2145 42.656 31.3734 42.656 27.8814V24.0173H38.8414Z" fill="#FEFEFE"/>
<path d="M26.3883 34.2146H30.2029V30.3505C30.2029 26.8584 27.3371 24.0173 23.8146 24.0173H20V27.8814C20 31.3734 22.8658 34.2146 26.3883 34.2146Z" fill="#FEFEFE"/>
</g>
<defs>
<clipPath id="clip0_1_1195">
<rect width="24" height="38.069" fill="white" transform="translate(20 12)"/>
</clipPath>
</defs>
</svg>
