<svg width="21" height="21" viewBox="0 0 21 21" fill="none" xmlns="http://www.w3.org/2000/svg">
<path d="M17.0598 6.99043L10.4999 13.3849L3.94003 6.99043C3.82282 6.87595 3.66549 6.81186 3.50165 6.81186C3.33782 6.81186 3.18048 6.87595 3.06328 6.99043C3.00653 7.04603 2.96144 7.1124 2.93066 7.18564C2.89989 7.25889 2.88403 7.33754 2.88403 7.41699C2.88403 7.49644 2.89989 7.57509 2.93066 7.64834C2.96144 7.72158 3.00653 7.78795 3.06328 7.84355L10.0418 14.6476C10.1644 14.767 10.3288 14.8339 10.4999 14.8339C10.671 14.8339 10.8354 14.767 10.958 14.6476L17.9365 7.84487C17.9937 7.78922 18.0391 7.72269 18.0701 7.6492C18.1011 7.57571 18.1171 7.49676 18.1171 7.41699C18.1171 7.33723 18.1011 7.25827 18.0701 7.18478C18.0391 7.11129 17.9937 7.04476 17.9365 6.98912C17.8193 6.87464 17.662 6.81055 17.4982 6.81055C17.3343 6.81055 17.177 6.87464 17.0598 6.98912V6.99043Z" fill="#202020"/>
</svg>
