<?xml version="1.0" encoding="utf-8"?><svg viewBox="0 0 84 84" xmlns="http://www.w3.org/2000/svg" xmlns:xlink="http://www.w3.org/1999/xlink"><style>:root>svg{display:none}:root>svg:target{display:block}</style><svg fill="none" viewBox="0 0 16 8" id="arrow-long" xmlns="http://www.w3.org/2000/svg"><path d="M15.354 4.354a.5.5 0 000-.708L12.172.464a.5.5 0 10-.708.708L14.293 4l-2.829 2.828a.5.5 0 10.708.708l3.182-3.182zM0 4.5h15v-1H0v1z" fill="currentColor"/></svg><svg fill="none" viewBox="0 0 28 28" id="basket" xmlns="http://www.w3.org/2000/svg"><path d="M18.667 21a2.333 2.333 0 110 4.667 2.333 2.333 0 010-4.667zm0 1.167a1.167 1.167 0 100 2.333 1.167 1.167 0 000-2.333zM8.167 21a2.333 2.333 0 110 4.667 2.333 2.333 0 010-4.667zm0 1.167a1.167 1.167 0 100 2.333 1.167 1.167 0 000-2.333zM21 7H4.985l2.972 7H17.5a1.159 1.159 0 00.934-.469l3.5-4.667A1.167 1.167 0 0021 7zm-3.5 8.167H8.01l-.893 1.82L7 17.5a1.167 1.167 0 001.167 1.167H21v1.166H8.167a2.334 2.334 0 01-2.042-3.465l.84-1.72-4.237-9.981H1.167V3.5H3.5l.99 2.333H21a2.334 2.334 0 011.812 3.804l-3.4 4.533a2.332 2.332 0 01-1.912.997z" fill="#202020"/></svg><svg fill="none" viewBox="0 0 24 39" id="before-title-tree" xmlns="http://www.w3.org/2000/svg"><g clip-path="url(#ca)" fill="currentColor"><path d="M10.203 31.244a6.479 6.479 0 00-4.782-2.098h-4.5v2.51c0 3.536 2.902 6.413 6.47 6.413h7.875c3.567 0 6.469-2.877 6.469-6.413v-2.51h-4.5a6.48 6.48 0 00-4.782 2.098v-6.797h-2.25v6.797zm1.121-24.371h.009a7.154 7.154 0 014.812-3.159C14.46 1.93 12.305.571 11.328 0c-.977.57-3.132 1.93-4.816 3.714a7.155 7.155 0 014.812 3.16zm6.015-1.027c-2.694 0-4.886 2.173-4.886 4.843v1.904a8.652 8.652 0 016.388-2.805h1.324V5.846H17.34zM3.814 9.788a8.652 8.652 0 016.389 2.805V10.69c0-2.67-2.192-4.843-4.886-4.843H2.49v3.942h1.324zm15.027 2.229c-3.522 0-6.388 2.841-6.388 6.334v3.864h3.815c3.522 0 6.388-2.842 6.388-6.334v-3.864h-3.815zM6.388 22.215h3.815V18.35c0-3.493-2.866-6.334-6.388-6.334H0v3.864c0 3.492 2.866 6.334 6.388 6.334z"/></g><defs><clipPath id="ca"><path fill="#fff" d="M0 0h24v38.069H0z"/></clipPath></defs></svg><svg fill="none" viewBox="0 0 32 32" id="chevron" xmlns="http://www.w3.org/2000/svg"><path d="M14.477 22.095L20.572 16l-6.095-6.095" stroke="currentColor" stroke-linecap="round" stroke-linejoin="round"/></svg><svg fill="none" viewBox="0 0 84 84" id="home-benefit-1" xmlns="http://www.w3.org/2000/svg"><path d="M54.145 16.935H30.63a5.617 5.617 0 00-5.611 5.609v37.683a5.616 5.616 0 005.61 5.608h23.517a5.615 5.615 0 005.61-5.608V22.544a5.615 5.615 0 00-5.61-5.609zm3.666 43.292a3.67 3.67 0 01-3.666 3.665H30.63a3.67 3.67 0 01-3.668-3.665V22.544a3.67 3.67 0 013.668-3.666h23.516a3.67 3.67 0 013.666 3.666v37.683z" fill="#40AC6C"/><path d="M49.357 22.358H35.285a.972.972 0 000 1.944h14.072a.971.971 0 100-1.944zM42.392 54.98h-.013a2.933 2.933 0 00-2.088.872 2.936 2.936 0 00-.86 2.093c.001.788.31 1.529.87 2.085a2.94 2.94 0 002.087.862h.012a2.938 2.938 0 002.087-.876c.556-.56.86-1.305.856-2.094a2.936 2.936 0 00-.873-2.085 2.933 2.933 0 00-2.078-.858zm1.008 2.952a1.01 1.01 0 01-1.727.72.997.997 0 01-.297-.713 1.006 1.006 0 01.294-.719c.19-.191.444-.298.716-.298h.004c.268 0 .52.104.711.293.192.19.299.444.3.715l-.001.002z" fill="#40AC6C"/><circle cx="42" cy="42" r="41.25" stroke="#40AC6C" stroke-width="1.5"/></svg><svg fill="none" viewBox="0 0 84 84" id="home-benefit-2" xmlns="http://www.w3.org/2000/svg"><path d="M46.172 58.329c0 2.03-1.641 3.67-3.677 3.67a3.67 3.67 0 01-3.67-3.67 3.67 3.67 0 013.67-3.672 3.67 3.67 0 013.677 3.672zM31.078 49.22c2.585-3.5 6.734-5.773 11.417-5.773 4.502 0 8.504 2.097 11.098 5.356M24.125 42.48c4.372-5.286 10.978-8.66 18.37-8.66 7.192 0 13.625 3.18 17.987 8.21" stroke="#40AC6C" stroke-width="3" stroke-miterlimit="10" stroke-linecap="round" stroke-linejoin="round"/><path d="M18.08 36.421c5.927-6.826 14.663-11.139 24.415-11.139 9.572 0 18.167 4.156 24.089 10.757" stroke="#40AC6C" stroke-width="3" stroke-miterlimit="10" stroke-linecap="round" stroke-linejoin="round"/><circle cx="42" cy="42" r="41.25" stroke="#40AC6C" stroke-width="1.5"/></svg><svg fill="none" viewBox="0 0 84 84" id="home-benefit-3" xmlns="http://www.w3.org/2000/svg"><circle cx="42" cy="42" r="41.25" stroke="#40AC6C" stroke-width="1.5"/><path d="M46.414 38.641c-.398.008-.73.016-1.032.016a29.83 29.83 0 01-1.885 0c.098-.595.317-1.832.805-4.377a1.014 1.014 0 00-.642-1.15c-.471-.19-1-.032-1.284.38-1.3 1.896-3.673 5.337-4.973 7.114-.235.317-.26.737-.073 1.086.187.349.553.563.959.555.341 0 .65-.016.95-.024a34.81 34.81 0 011.333-.024c-.3.714-.617 1.53-.942 2.371a82.942 82.942 0 01-.886 2.229 1.01 1.01 0 00.422 1.26 1.081 1.081 0 001.349-.182c2.414-2.585 4.096-4.496 6.736-7.565.269-.317.325-.737.147-1.11a1.081 1.081 0 00-.984-.579zm-6.24 7.858c.203-.507.39-.999.585-1.482.455-1.166.886-2.276 1.276-3.125a.586.586 0 00-.04-.555.613.613 0 00-.496-.277c-.382-.016-.716-.016-1.024-.016-.48 0-.886.008-1.284.024-.203.008-.406.008-.626.016 1.195-1.658 3.112-4.425 4.396-6.289a241.631 241.631 0 00-.48 2.57c-.097.539-.17.959-.21 1.252-.09.547-.114.754.065.984a.617.617 0 00.446.23 26.78 26.78 0 002.617.023c.211-.008.43-.008.682-.015-2.283 2.664-3.86 4.456-5.907 6.66zM70.97 26.12c2.608 4.258 4.006 9.278 4.03 14.527a.601.601 0 01-.61.595.601.601 0 01-.609-.595c-.024-5.035-1.357-9.848-3.86-13.924a32.92 32.92 0 00-1.974-2.87.585.585 0 01.122-.833.62.62 0 01.853.119c.731.96 1.414 1.958 2.048 2.981zM31.96 12.11c-8.776 2.64-15.447 8.762-18.779 17.23-1.406 3.561-2.056 7.391-1.95 11.38a.606.606 0 01-.593.61h-.016a.604.604 0 01-.61-.579c-.114-4.147.569-8.127 2.032-11.838 3.47-8.818 10.416-15.186 19.558-17.945 9.97-3.006 21.207-1.221 30.072 4.765a.58.58 0 01.155.825.614.614 0 01-.846.15c-8.556-5.772-19.403-7.5-29.024-4.598zm38.335 3.83a.586.586 0 00-.04-.754.617.617 0 00-.764-.103c-4.168 2.482-8.727 5.21-13.31 7.946-4.054 2.426-8.125 4.86-11.952 7.152a11.82 11.82 0 00-.927-.135c-1.69-.174-3.388.072-5.037.714-4.087 1.61-6.923 5.733-6.907 10.039.024 4.298 2.9 8.398 6.996 9.975a10.9 10.9 0 003.925.714c3.03 0 6.07-1.19 8.158-3.37 1.925-1.998 2.974-4.758 2.82-7.359a11.685 11.685 0 00-.212-1.601c2.535-3.378 5.168-6.955 7.72-10.412 3.168-4.29 6.434-8.723 9.53-12.806zM49.56 47.3c-1.284 1.34-3.071 2.316-5.013 2.744-1.942.428-3.982.293-5.737-.38-1.755-.675-3.34-1.928-4.469-3.53-1.13-1.609-1.755-3.504-1.763-5.336-.008-1.84.601-3.743 1.714-5.352 1.113-1.618 2.69-2.887 4.429-3.577 1.795-.706 3.64-.864 5.411-.491.049.015.09.023.138.031 1 .23 1.967.627 2.885 1.19a10.37 10.37 0 014.648 6.542c0 .008 0 .016.008.023.122.54.203 1.095.235 1.658.139 2.291-.788 4.71-2.486 6.478zm3.088-9.626a11.567 11.567 0 00-4.843-6.082c-.634-.397-1.3-.714-1.983-.968 3.551-2.117 7.28-4.353 11.002-6.581 3.624-2.165 7.24-4.33 10.653-6.368a1304.308 1304.308 0 00-7.687 10.372c-2.364 3.188-4.786 6.479-7.142 9.627zM42.019 12.727l.04 4.385a.611.611 0 01-.601.603h-.008a.6.6 0 01-.61-.587l-.04-4.385c0-.325.268-.595.601-.603h.008a.6.6 0 01.61.587zM25.19 24.162c.243.23.243.602.008.84a.638.638 0 01-.87.008l-3.21-3.069a.581.581 0 01-.007-.84.616.616 0 01.86-.008l3.219 3.069zm-6.208 17.215a.612.612 0 01-.602.602l-4.493.04h-.008a.6.6 0 01-.61-.587c0-.325.269-.594.602-.602l4.493-.04h.008a.6.6 0 01.61.587zm52.588 0a.611.611 0 01-.601.602l-4.494.04h-.008a.6.6 0 01-.61-.587c0-.325.269-.594.602-.602l4.494-.04h.008c.333 0 .6.262.609.587z" fill="#40AC6C"/></svg><svg fill="none" viewBox="0 0 84 84" id="home-benefit-4" xmlns="http://www.w3.org/2000/svg"><g clip-path="url(#ha)" fill="#40AC6C"><path d="M33.197 54.886l-5.053 4.925a1.755 1.755 0 00-.452 1.81 1.762 1.762 0 001.43 1.211l6.991 1.013 3.123 6.335c.302.607.91.984 1.586.984l.005-.001a1.756 1.756 0 001.58-.986l3.123-6.331 6.988-1.014a1.764 1.764 0 001.432-1.22 1.744 1.744 0 00-.454-1.798l-5.054-4.927 1.197-6.991a1.766 1.766 0 00-.697-1.727 1.758 1.758 0 00-1.842-.152l-6.426 3.252-6.1-3.206a1.762 1.762 0 00-1.868.133A1.76 1.76 0 0032 47.928l1.196 6.958zm2.002.175l-1.223-7.12 6.239 3.28c.278.146.61.148.89.007l6.562-3.321-1.225 7.154a.971.971 0 00.28.86l5.167 5.038-7.143 1.037a.971.971 0 00-.732.532L40.821 69l-3.19-6.473a.97.97 0 00-.732-.532l-7.15-1.037 5.17-5.038a.97.97 0 00.28-.86zM10.072 51.19c.178.554.646.952 1.229 1.04l4.613.667 2.063 4.183c.258.52.78.842 1.36.842h.004a1.5 1.5 0 001.355-.846l2.061-4.179 4.617-.668a1.512 1.512 0 001.222-1.042 1.502 1.502 0 00-.388-1.544l-3.337-3.255.79-4.612a1.509 1.509 0 00-.59-1.477 1.51 1.51 0 00-1.588-.135l-4.247 2.15-4.025-2.118a1.507 1.507 0 00-1.607.12c-.47.344-.697.914-.595 1.478l.787 4.595-3.335 3.252a1.503 1.503 0 00-.389 1.548zm8.88 5.028zm-3.435-8.794a.973.973 0 00.28-.86l-.727-4.246 3.704 1.949c.279.147.611.15.891.007l3.938-1.993-.734 4.283a.973.973 0 00.279.86l3.084 3.008-4.26.617a.97.97 0 00-.732.532l-1.905 3.863-1.905-3.863a.97.97 0 00-.732-.532l-4.264-.617 3.083-3.008zm38.755 4.806l4.613.668 2.063 4.182c.259.52.78.843 1.36.843h.004c.58-.001 1.1-.326 1.357-.847l2.06-4.178 4.617-.668a1.515 1.515 0 001.223-1.044 1.5 1.5 0 00-.387-1.543l-3.337-3.254.788-4.611a1.51 1.51 0 00-.59-1.478 1.508 1.508 0 00-1.587-.135l-4.247 2.15-4.026-2.118a1.505 1.505 0 00-1.603.117 1.5 1.5 0 00-.6 1.48l.787 4.595-3.334 3.252a1.503 1.503 0 00-.388 1.549c.177.553.645.952 1.227 1.04zm4.217-4.806a.973.973 0 00.279-.86l-.727-4.246 3.707 1.95c.28.146.61.149.89.006l3.936-1.992-.732 4.282a.973.973 0 00.28.86l3.083 3.008-4.262.617a.97.97 0 00-.732.532l-1.905 3.863-1.904-3.863a.97.97 0 00-.732-.532l-4.264-.617 3.083-3.008zM42.08 36.298c-1.406 0-2.66-.241-3.76-.724-1.095-.483-1.965-1.154-2.61-2.014-.64-.866-.988-1.871-1.045-3.015h2.685c.057.704.298 1.31.724 1.822.426.504.984.895 1.673 1.172.689.277 1.452.416 2.29.416.938 0 1.769-.164 2.493-.49.725-.327 1.293-.782 1.705-1.364.412-.582.618-1.257.618-2.024 0-.803-.2-1.51-.597-2.12-.398-.618-.98-1.101-1.747-1.45-.767-.347-1.705-.521-2.813-.521H39.95v-2.344h1.747c.867 0 1.627-.156 2.28-.469.66-.312 1.176-.752 1.545-1.32.376-.569.565-1.237.565-2.004 0-.738-.164-1.381-.49-1.928a3.351 3.351 0 00-1.385-1.278c-.59-.306-1.286-.458-2.088-.458-.753 0-1.464.138-2.131.415-.66.27-1.2.664-1.62 1.183-.419.511-.646 1.129-.681 1.853h-2.557c.042-1.143.387-2.145 1.033-3.004.647-.866 1.492-1.541 2.536-2.024 1.05-.483 2.205-.725 3.462-.725 1.35 0 2.507.274 3.473.82.966.54 1.708 1.254 2.227 2.142.518.888.777 1.847.777 2.877 0 1.228-.323 2.276-.97 3.142-.638.867-1.508 1.467-2.61 1.8v.171c1.379.227 2.455.813 3.229 1.758.774.938 1.161 2.099 1.161 3.484 0 1.186-.323 2.251-.97 3.196-.639.937-1.512 1.676-2.62 2.216-1.108.54-2.369.81-3.782.81z"/></g><circle cx="42" cy="42" r="41.25" stroke="#40AC6C" stroke-width="1.5"/><defs><clipPath id="ha"><path fill="#fff" transform="translate(9 6)" d="M0 0h65v65H0z"/></clipPath></defs></svg><svg fill="none" viewBox="0 0 84 84" id="home-benefit-5" xmlns="http://www.w3.org/2000/svg"><path d="M71.335 42.678a.935.935 0 00-1.238-.42l-6.555 3.124-4.468 1.898c-.69-.175-2.45-.627-4.033-1.087l-.776-.284a.936.936 0 00-.345-.055 15.694 15.694 0 01-1.347-.478c-1.54-.665-4.293-2.23-5.403-3.174-1.254-1.063-4.52-5.008-4.552-5.048a.939.939 0 00-1.148-.234c-.898.459-3.812 1.669-5.355 1.229-.814-.238-2.32-1.049-2.747-1.553-.284-.336-.526-1.546-.399-1.933.333-.165 1.596.044 2.215.147 1.058.175 2.059.341 2.832.096 1.505-.477 4.54-3.02 5.271-3.646.726-.26 4.307-1.444 6.805-.47 1.318.515 2.6.692 3.742.692 2.472 0 4.295-.833 4.43-.897l9.105-4.772a.901.901 0 00.38-1.23.936.936 0 00-1.254-.374l-9.063 4.752c-.032.015-3.255 1.466-6.655.14-2.96-1.157-6.801-.007-7.966.394-1.292-.48-4.923-1.755-6.537-1.515-1.506.227-5.893.43-7.67.108-.75-.208-6.447-3.232-11.426-5.972a.936.936 0 00-1.262.349.9.9 0 00.355 1.237c3.256 1.792 10.942 5.98 11.965 6.167 2.174.395 6.845.13 8.317-.091.728-.109 2.705.425 4.435 1.006-1.294 1.038-2.838 2.168-3.542 2.391-.343.108-1.235-.04-1.953-.16-1.469-.243-2.987-.495-3.877.39-.992.998-.398 3.498.324 4.35.745.882 2.626 1.839 3.652 2.138 1.997.569 4.758-.467 6.05-1.04.977 1.164 3.23 3.804 4.313 4.722 1.35 1.15 4.379 2.82 5.87 3.464.581.25 1.563.564 2.612.872l4.346 1.588c.227.115.4.33.513.639.196.538.157 1.255-.097 1.784a1.61 1.61 0 01-1.665.88.943.943 0 00-.428-.122l-5.893-2.998a.935.935 0 00-1.25.388.9.9 0 00.397 1.226l5.935 3.019c.017.009.036.013.054.022.045.23.003.39-.064.601a2.935 2.935 0 00-.124.5 1.611 1.611 0 01-2.026.699l-4.974-2.12c-.022-.01-.045-.014-.068-.022-.03-.01-.059-.021-.089-.028-.03-.007-.06-.01-.091-.014-.03-.004-.059-.009-.088-.01a.723.723 0 00-.093.004.597.597 0 00-.085.007c-.03.005-.06.013-.09.02-.027.008-.055.014-.082.023-.028.01-.055.024-.082.037-.026.013-.053.024-.078.04-.026.014-.048.032-.072.049a.875.875 0 00-.072.055c-.021.02-.04.041-.06.062-.021.023-.043.045-.061.07-.018.024-.032.05-.048.075-.013.022-.028.04-.04.062-.003.007-.004.015-.008.022-.003.007-.008.013-.01.02-.01.02-.014.04-.02.062a.597.597 0 00-.031.093c-.007.027-.01.056-.014.084-.004.03-.009.06-.01.091 0 .03.002.058.004.087.001.03.003.059.007.088.005.029.013.057.02.086.008.028.014.055.024.082.01.028.024.054.037.08a.804.804 0 00.091.149.813.813 0 00.055.069c.02.022.044.042.067.062.022.02.043.04.067.057.026.018.053.034.081.05.02.012.038.026.059.036l1.326.645a1.541 1.541 0 01.751 2.065c-.183.38-.505.666-.906.807a1.583 1.583 0 01-1.201-.06l-3.729-1.728 1.063-1.768c1.023-1.697.447-3.896-1.283-4.904h-.001a3.717 3.717 0 00-2.467-.45c.169-1.62-.584-3.255-2.075-4.125l-.005-.003c-1.481-.853-3.276-.732-4.635.155a3.595 3.595 0 00-1.6-1.947c-1.742-1.004-3.991-.438-5.013 1.26l-2.485 4.125-6.081-4.268c-.022-.015-.046-.026-.069-.038-.022-.013-.042-.029-.065-.04L13.33 42.26a.935.935 0 00-1.238.42.902.902 0 00.43 1.216l6.503 3.1 6.237 4.377a3.565 3.565 0 001.644 4.133 3.699 3.699 0 001.854.496c.203 0 .405-.022.604-.055-.175 1.634.585 3.284 2.09 4.157a4.306 4.306 0 002.164.581 4.46 4.46 0 002.465-.746c.273.783.82 1.48 1.602 1.934.582.336 1.22.496 1.852.496 1.25 0 2.47-.628 3.153-1.756l.987-1.643 3.88 1.798a3.46 3.46 0 002.618.13 3.4 3.4 0 001.959-1.743c.273-.567.366-1.17.31-1.753l.956.407c.439.186.898.274 1.35.274 1.332 0 2.605-.763 3.17-2.036a.868.868 0 00.078-.359c.002-.033.034-.133.057-.205.068-.215.16-.503.171-.876a3.45 3.45 0 002.648-1.903c.466-.967.53-2.184.167-3.177a3.161 3.161 0 00-.502-.886l3.757-1.596.019-.01.017-.007 6.574-3.133a.904.904 0 00.428-1.216zM27.848 53.936a1.753 1.753 0 01-.645-2.42l3-4.98a1.81 1.81 0 011.555-.865c.313 0 .63.08.92.246a1.753 1.753 0 01.635 2.418l-2.998 4.98c-.504.838-1.612 1.116-2.467.621zm6.439 4.838a2.474 2.474 0 01-1.89-.238c-1.189-.69-1.566-2.237-.842-3.447l3.882-6.44a2.61 2.61 0 012.234-1.269c.425 0 .853.106 1.242.33 1.18.69 1.55 2.232.825 3.436l-3.88 6.44a2.614 2.614 0 01-1.571 1.188zm6.809.91c-.506.836-1.614 1.114-2.467.62-.86-.499-1.15-1.585-.644-2.422l2.996-4.98a1.81 1.81 0 011.555-.863c.314 0 .632.08.923.247a1.749 1.749 0 01.631 2.416l-1.257 2.093a.915.915 0 00-.616.49.884.884 0 00-.053.623l-1.068 1.777z" fill="#40AC6C"/><circle cx="42" cy="42" r="41.25" stroke="#40AC6C" stroke-width="1.5"/></svg><svg fill="none" viewBox="0 0 84 84" id="home-benefit-6" xmlns="http://www.w3.org/2000/svg"><path d="M71.417 40.485a6.335 6.335 0 00-2.932-3.905 6.343 6.343 0 00-4.84-.686c-3.087.794-5.06 3.731-4.753 6.811l-6.466 1.665c.068-.483.115-.974.115-1.476 0-5.843-4.753-10.597-10.596-10.597-.429 0-.85.033-1.265.083l1.875-5.6a6.35 6.35 0 001.089.097c.974 0 1.942-.226 2.839-.672a6.343 6.343 0 003.207-3.687 6.393 6.393 0 00-4.026-8.081 6.394 6.394 0 00-8.081 4.027c-1.013 3.023.38 6.275 3.131 7.693l-2.195 6.556a.97.97 0 00-.04.178c-3.984 1.385-6.886 5.079-7.104 9.475l-5.556-1.864c.526-3.05-1.23-6.121-4.251-7.135a6.342 6.342 0 00-4.874.336 6.334 6.334 0 00-3.208 3.684 6.394 6.394 0 004.02 8.084 6.363 6.363 0 002.024.332 6.404 6.404 0 005.677-3.457l6.27 2.104c.756 5.106 5.155 9.041 10.47 9.041.425 0 .842-.032 1.254-.08l-2.356 4.787a6.325 6.325 0 00-3.967.04 6.34 6.34 0 00-3.67 3.223 6.338 6.338 0 00-.319 4.875 6.337 6.337 0 003.225 3.672 6.35 6.35 0 004.876.316 6.342 6.342 0 003.67-3.224 6.339 6.339 0 00.318-4.876 6.332 6.332 0 00-2.389-3.168l3.053-6.203c.007-.014.01-.03.017-.046a10.632 10.632 0 006.233-6.291l7.485-1.928a6.331 6.331 0 002.615 2.985 6.344 6.344 0 004.837.685 6.342 6.342 0 003.906-2.936 6.343 6.343 0 00.682-4.837zM39.425 19.082a4.447 4.447 0 015.622-2.802 4.447 4.447 0 012.8 5.622 4.41 4.41 0 01-2.23 2.564 4.412 4.412 0 01-3.39.235 4.446 4.446 0 01-2.802-5.619zm3.49 47.16a4.412 4.412 0 01-2.553 2.242 4.407 4.407 0 01-3.39-.219 4.41 4.41 0 01-2.243-2.554 4.413 4.413 0 01.222-3.392 4.41 4.41 0 012.553-2.242 4.415 4.415 0 013.39.221 4.409 4.409 0 012.243 2.552 4.411 4.411 0 01-.221 3.392zM18.124 43.629a4.447 4.447 0 01-2.796-5.624 4.408 4.408 0 012.231-2.562 4.425 4.425 0 013.391-.235 4.446 4.446 0 012.796 5.622 4.445 4.445 0 01-5.622 2.8zm23.823 7.92c-4.772 0-8.654-3.883-8.654-8.655 0-4.772 3.882-8.654 8.654-8.654 4.771 0 8.653 3.882 8.653 8.654s-3.882 8.654-8.653 8.654zm27.115-7.215a4.414 4.414 0 01-2.718 2.042 4.41 4.41 0 01-3.363-.476 4.408 4.408 0 01-2.042-2.717 4.445 4.445 0 014.31-5.549c.784 0 1.557.21 2.25.62a4.403 4.403 0 012.039 2.716 4.417 4.417 0 01-.476 3.364z" fill="#40AC6C"/><circle cx="42" cy="42" r="41.25" stroke="#40AC6C" stroke-width="1.5"/></svg><svg fill="none" viewBox="0 0 64 64" id="question-mark" xmlns="http://www.w3.org/2000/svg"><rect width="64" height="64" rx="12" fill="#40AC6C"/><path d="M28.136 38.534v-.58c.012-1.988.188-3.573.529-4.755.352-1.182.863-2.136 1.534-2.864a11.748 11.748 0 012.42-1.977 16.09 16.09 0 001.892-1.415c.557-.489 1-1.028 1.33-1.62a4.12 4.12 0 00.494-2.01c0-.785-.187-1.472-.562-2.063a3.744 3.744 0 00-1.517-1.364 4.517 4.517 0 00-2.08-.477c-.739 0-1.437.165-2.097.494a4.004 4.004 0 00-1.619 1.432c-.42.625-.648 1.404-.682 2.335h-6.954c.057-2.272.602-4.147 1.636-5.625 1.034-1.488 2.404-2.596 4.108-3.323 1.705-.739 3.585-1.108 5.642-1.108 2.262 0 4.262.375 6 1.125 1.739.738 3.102 1.812 4.091 3.221.989 1.41 1.483 3.108 1.483 5.097 0 1.33-.221 2.511-.665 3.545a8.64 8.64 0 01-1.824 2.727 14.126 14.126 0 01-2.778 2.131c-.898.534-1.636 1.091-2.216 1.67a5.678 5.678 0 00-1.278 2.012c-.273.761-.415 1.699-.426 2.813v.58h-6.46zm3.375 10.91c-1.136 0-2.108-.399-2.914-1.194-.796-.807-1.188-1.773-1.177-2.898-.01-1.113.381-2.068 1.177-2.863.806-.796 1.778-1.194 2.914-1.194 1.08 0 2.029.398 2.847 1.194.818.795 1.233 1.75 1.244 2.863a3.965 3.965 0 01-.596 2.063 4.407 4.407 0 01-1.483 1.483 3.873 3.873 0 01-2.012.545z" fill="#fff"/></svg><svg fill="none" viewBox="0 0 28 28" id="user" xmlns="http://www.w3.org/2000/svg"><path d="M13.417 16.333c4.832 0 8.75 1.828 8.75 4.084v2.916h-17.5v-2.916c0-2.256 3.918-4.084 8.75-4.084zM21 20.417c0-1.61-3.395-2.917-7.583-2.917-4.188 0-7.583 1.307-7.583 2.917v1.75H21v-1.75zM13.417 5.833a4.083 4.083 0 110 8.166 4.083 4.083 0 010-8.166zm0 1.167a2.917 2.917 0 100 5.833 2.917 2.917 0 000-5.833z" fill="#000"/></svg><svg fill="none" viewBox="0 0 55 55" id="video-play" xmlns="http://www.w3.org/2000/svg"><circle cx="27.5" cy="27.5" r="27" stroke="currentColor"/><path d="M36 27l-13.5 7.794V19.206L36 27z" fill="currentColor"/></svg></svg>