<svg width="62" height="62" viewBox="0 0 62 62" fill="none" xmlns="http://www.w3.org/2000/svg">
<path d="M50.8125 17.504C51.6151 13.4734 51.9648 8.26455 49.0734 6.33943C46.1826 4.41245 41.5112 6.73916 38.0997 9.03127C34.4687 11.4717 30.6438 15.0278 29.0041 17.4867L27.7913 19.3068C25.852 19.2543 19.7041 19.1666 17.4447 20.089C14.9506 21.109 10.4053 26.4945 10.186 28.689C10.1019 29.5324 10.5282 29.9506 10.7908 30.1255C11.2733 30.4461 12.5794 30.5672 14.2784 30.5672C16.0812 30.5672 18.3257 30.43 20.4998 30.2503L20.0902 30.8656C20.0896 30.8662 20.089 30.8668 20.0884 30.8675C20.0877 30.8681 20.0877 30.8693 20.0871 30.8699L16.6354 36.0497C14.3118 39.5423 14.3031 44.0919 16.5501 47.577L15.1124 49.7344C14.5082 50.6401 14.3087 51.7355 14.5515 52.8186C14.7899 53.8862 15.4319 54.8141 16.3592 55.4313C17.0932 55.9194 17.9204 56.1529 18.7329 56.1529C20.0531 56.1529 21.332 55.5351 22.0987 54.3866L23.5315 52.2366C24.1456 52.3466 24.7615 52.4015 25.3744 52.4009C28.8373 52.4009 32.1667 50.6803 34.1444 47.7148L38.2819 41.5038C39.5849 45.5363 41.1418 49.7554 42.1371 50.419C42.2922 50.5221 42.548 50.6457 42.8865 50.6457C43.1194 50.6457 43.3913 50.587 43.6965 50.4221C45.6383 49.373 48.8553 43.1027 48.8336 40.4103C48.8182 37.9718 46.3667 32.3298 45.5709 30.5616L46.5088 29.1536C48.1479 26.6959 49.9581 21.7966 50.8125 17.504ZM39.1339 10.5696C43.1701 7.85679 46.5032 6.85222 48.0459 7.88151C49.5905 8.91017 49.9451 12.3718 48.9949 17.1414C48.0737 21.7682 46.2709 26.1683 44.9661 28.1243L36.5681 40.7309L26.6521 34.1252C26.6459 34.1209 26.6416 34.1153 26.6354 34.1116C26.6292 34.1073 26.6224 34.1055 26.6162 34.1011L22.1445 31.1226L29.0264 20.7939L30.5456 18.5136C31.8516 16.5575 35.22 13.1997 39.1339 10.5696ZM12.0685 28.6439C12.4861 27.1698 16.0855 22.648 18.1459 21.8047C19.6281 21.1998 23.841 21.1096 26.5711 21.1387L21.8164 28.2745C17.842 28.6353 13.3337 28.8466 12.0685 28.6439ZM18.1781 37.0772L21.117 32.6666L24.8351 35.1434L17.6918 45.8626C16.2672 43.1046 16.4185 39.722 18.1781 37.0772ZM20.5567 53.3573C19.8839 54.365 18.4604 54.6028 17.3854 53.8874C16.8578 53.5365 16.4945 53.0126 16.3598 52.4133C16.2295 51.8294 16.3339 51.2425 16.6551 50.7619L18.453 48.0638C18.4579 48.0558 18.4641 48.0484 18.4691 48.0404L26.3784 36.1702L30.2781 38.7681L20.5567 53.3573ZM32.6023 46.6861C30.8403 49.3298 27.774 50.7717 24.6757 50.5184L31.8201 39.7962L35.5406 42.2749L32.6023 46.6861ZM46.9796 40.4233C46.9969 42.6437 44.2297 47.6826 43.0231 48.6588C42.3039 47.4899 40.7822 43.2937 39.5985 39.5268L44.3501 32.3935C45.4295 34.9012 46.9697 38.8244 46.9796 40.4233Z" fill="#FEFEFE"/>
<path d="M34.722 27.3316C35.8137 28.0588 37.0487 28.4073 38.2707 28.4073C40.3466 28.4073 42.3866 27.4033 43.6223 25.5498L43.6229 25.5492C45.5839 22.6022 44.7832 18.6105 41.8374 16.6502C40.4109 15.7 38.6995 15.3614 37.0184 15.6975C35.3373 16.0336 33.8885 17.0042 32.9389 18.4301C31.9869 19.8579 31.6483 21.5705 31.9857 23.2528C32.3242 24.9339 33.296 26.3827 34.722 27.3316ZM34.4829 19.4575C35.1575 18.4437 36.1881 17.7536 37.3829 17.5145C37.6838 17.4539 37.9871 17.4243 38.2874 17.4243C39.1789 17.4243 40.0513 17.6862 40.8112 18.1922C42.9056 19.586 43.4752 22.4255 42.0802 24.5212C40.6845 26.6156 37.8438 27.1846 35.75 25.7883C34.7349 25.1137 34.0436 24.0831 33.8045 22.8877C33.5642 21.6922 33.8051 20.4738 34.4829 19.4575Z" fill="#FEFEFE"/>
</svg>
