<svg width="66" height="65" viewBox="0 0 66 65" fill="none" xmlns="http://www.w3.org/2000/svg">
<path d="M47.0445 45.7199C45.3092 35.3998 33.7571 7.11584 33.2662 5.91691C33.1165 5.55224 32.7616 5.31323 32.3671 5.31323C31.9727 5.31323 31.6171 5.55159 31.4681 5.91691C30.9771 7.11584 19.4296 35.3998 17.6943 45.7199C17.1386 49.0162 18.1121 52.3455 20.4342 55.0925C23.2913 58.4716 27.8635 60.5709 32.3665 60.5709C36.8714 60.5709 41.4456 58.4703 44.304 55.0899C46.6273 52.3422 47.6002 49.0149 47.0445 45.7199ZM42.8207 53.8352C40.3211 56.7914 36.3156 58.6277 32.3671 58.6277C28.4206 58.6277 24.417 56.7921 21.9188 53.8372C19.9711 51.5339 19.1517 48.7655 19.6109 46.0419C19.6109 46.0419 19.6109 46.0419 19.6109 46.0412C21.0333 37.5833 29.5554 15.9002 32.3678 8.87958C35.1815 15.9002 43.7061 37.582 45.1292 46.0419C45.5877 48.7642 44.7684 51.5319 42.8207 53.8352Z" fill="#FEFEFE"/>
<path d="M30.2497 52.041C27.4444 50.0506 26.0337 46.8437 26.5694 43.6705C26.8524 41.9826 27.4373 39.656 28.3091 36.7555C28.4633 36.2418 28.1725 35.6997 27.6582 35.5455C27.1452 35.3901 26.603 35.6822 26.4482 36.1965C25.5531 39.1747 24.9494 41.581 24.6534 43.3486C23.9927 47.2622 25.7066 51.2003 29.1253 53.626C29.2963 53.7471 29.4925 53.8054 29.6868 53.8054C29.9913 53.8054 30.2905 53.6629 30.4803 53.3961C30.7905 52.9582 30.6869 52.3513 30.2497 52.041Z" fill="#FEFEFE"/>
</svg>
